<svg id="_1erplan_bas_gauche" data-name="1erplan bas gauche" xmlns="http://www.w3.org/2000/svg" viewBox="0 0 740.95 578.94"><defs><style>.cls-1{fill:#ff000a;stroke:#003ae6;}.cls-1,.cls-10,.cls-11,.cls-12,.cls-13,.cls-14,.cls-15,.cls-16,.cls-17,.cls-2,.cls-3,.cls-4,.cls-5,.cls-6,.cls-7,.cls-8,.cls-9{stroke-miterlimit:10;}.cls-2{fill:#ef0418;stroke:#1036d8;}.cls-3{fill:#df0726;stroke:#2033cb;}.cls-4{fill:#cf0b33;stroke:#302fbd;}.cls-5{fill:#bf0f41;stroke:#402caf;}.cls-6{fill:#af124f;stroke:#5028a1;}.cls-7{fill:#9f165d;stroke:#602493;}.cls-8{fill:#8f196a;stroke:#702186;}.cls-9{fill:#801d78;stroke:#801d78;}.cls-10{fill:#702186;stroke:#8f196a;}.cls-11{fill:#602493;stroke:#9f165d;}.cls-12{fill:#5028a1;stroke:#af124f;}.cls-13{fill:#402caf;stroke:#bf0f41;}.cls-14{fill:#302fbd;stroke:#cf0b33;}.cls-15{fill:#2033cb;stroke:#df0726;}.cls-16{fill:#1036d8;stroke:#ef0418;}.cls-17{fill:#003ae6;stroke:#ff000a;}</style></defs><title>1er_plan_bas_gauche</title><path class="cls-1" d="M51,374.92s80.13-110.82,209.4-18.84,257.22,46.21,257.22,46.21,184.06-46.41,266.31,267.19c79.53,303.23-549.07,216.58-549.07,216.58Z" transform="translate(-50.44 -319.07)"/><path class="cls-2" d="M89.33,393.82s76-105.06,198.52-17.86,243.87,43.81,243.87,43.81,174-43.91,252.48,253.13c75.89,287.31-520.56,205.5-520.56,205.5Z" transform="translate(-50.44 -319.07)"/><path class="cls-3" d="M127.66,412.72s71.81-99.3,187.65-16.89,230.5,41.41,230.5,41.41,164-41.4,238.66,239.08c72.25,271.39-492,194.42-492,194.42Z" transform="translate(-50.44 -319.07)"/><path class="cls-4" d="M166,431.62s67.65-93.55,176.77-15.91,217.14,39,217.14,39,154-38.9,224.83,225C853.35,935.22,321.2,863.09,321.2,863.09Z" transform="translate(-50.44 -319.07)"/><path class="cls-5" d="M204.33,450.52s63.49-87.79,165.9-14.93S574,472.19,574,472.19s144-36.39,211,211c65,239.56-435,172.27-435,172.27Z" transform="translate(-50.44 -319.07)"/><path class="cls-6" d="M242.66,469.42s59.33-82,155-13.95,190.42,34.19,190.42,34.19,134-33.88,197.17,196.91c61.33,223.65-406.52,161.21-406.52,161.21Z" transform="translate(-50.44 -319.07)"/><path class="cls-7" d="M281,488.32s55.16-76.28,144.14-13,177.07,31.8,177.07,31.8,124-31.38,183.34,182.85c57.68,207.74-378,150.13-378,150.13Z" transform="translate(-50.44 -319.07)"/><path class="cls-8" d="M319.33,507.22s51-70.52,133.27-12,163.71,29.39,163.71,29.39,113.94-28.86,169.51,168.8c54,191.82-349.5,139.06-349.5,139.06Z" transform="translate(-50.44 -319.07)"/><path class="cls-9" d="M357.66,526.12s46.85-64.76,122.4-11,150.35,27,150.35,27,103.92-26.36,155.68,154.74c50.4,175.91-321,128-321,128Z" transform="translate(-50.44 -319.07)"/><path class="cls-10" d="M396,545s42.68-59,111.52-10,137,24.58,137,24.58,93.91-23.85,141.86,140.69c46.76,160-292.48,116.9-292.48,116.9Z" transform="translate(-50.44 -319.07)"/><path class="cls-11" d="M434.33,563.92s38.52-53.25,100.65-9.07S658.6,577,658.6,577s83.89-21.35,128,126.62c43.12,144.08-264,105.84-264,105.84Z" transform="translate(-50.44 -319.07)"/><path class="cls-12" d="M472.66,582.82s34.36-47.49,89.77-8.09S672.7,594.51,672.7,594.51s73.87-18.84,114.2,112.57c39.48,128.17-235.46,94.76-235.46,94.76Z" transform="translate(-50.44 -319.07)"/><path class="cls-13" d="M511,601.72s30.2-41.74,78.9-7.11S686.8,612,686.8,612s63.85-16.34,100.37,98.51C823,822.75,580.22,794.19,580.22,794.19Z" transform="translate(-50.44 -319.07)"/><path class="cls-14" d="M549.33,620.62s26-36,68-6.13,83.55,15,83.55,15,53.83-13.83,86.54,84.46C819.64,810.25,609,786.53,609,786.53Z" transform="translate(-50.44 -319.07)"/><path class="cls-15" d="M587.66,639.52s21.88-30.22,57.15-5.16S715,646.94,715,646.94s43.81-11.32,72.71,70.39c28.56,80.43-149.93,61.55-149.93,61.55Z" transform="translate(-50.44 -319.07)"/><path class="cls-16" d="M626,658.42s17.72-24.46,46.27-4.18,56.83,10.17,56.83,10.17,33.8-8.81,58.89,56.34c24.91,64.51-121.42,50.47-121.42,50.47Z" transform="translate(-50.44 -319.07)"/><path class="cls-17" d="M664.33,677.32s13.55-18.71,35.39-3.2,43.47,7.77,43.47,7.77,23.78-6.31,45.06,42.28-92.91,39.39-92.91,39.39Z" transform="translate(-50.44 -319.07)"/></svg>