<?xml version="1.0" encoding="UTF-8" standalone="no"?>
<!DOCTYPE svg PUBLIC "-//W3C//DTD SVG 1.1//EN" "http://www.w3.org/Graphics/SVG/1.1/DTD/svg11.dtd">
<svg width="100%" height="100%" viewBox="0 0 741 579" version="1.1" xmlns="http://www.w3.org/2000/svg" xmlns:xlink="http://www.w3.org/1999/xlink" xml:space="preserve" xmlns:serif="http://www.serif.com/" style="fill-rule:evenodd;clip-rule:evenodd;">
    <g transform="matrix(-1,0,0,1,791.453,-319.07)">
        <path d="M64.377,412.107C54.821,385.543 65.004,355.906 88.869,340.824C124.559,318.252 183.868,301.625 260.4,356.08C378.411,440.049 495.321,409.218 514.792,403.21C517.624,402.321 520.521,401.653 523.457,401.214C555.41,396.5 710.378,389.043 783.93,669.48C851.586,927.436 406.783,903.243 272.45,890.269C249.533,887.819 230.029,872.494 222.228,850.807C188.78,757.956 98.562,507.144 64.377,412.107Z" style="fill:rgb(255,0,10);fill-rule:nonzero;stroke:rgb(0,58,230);stroke-width:1px;"/>
    </g>
    <g transform="matrix(-1,0,0,1,791.453,-319.07)">
        <path d="M102.886,431.505C93.083,404.256 104.066,373.889 129.03,359.214C163.187,339.042 217.947,326.208 287.85,375.96C399.73,455.587 510.635,426.321 529.053,420.638C531.722,419.799 534.453,419.169 537.219,418.755C567.39,414.299 714.004,407.215 784.2,672.9C784.2,672.9 784.2,672.9 784.2,672.9C848.418,916.023 431.201,894.833 301.349,882.565C278.377,880.164 258.807,864.824 250.989,843.09C219.035,754.4 135.698,522.721 102.886,431.505Z" style="fill:rgb(239,4,24);fill-rule:nonzero;stroke:rgb(16,54,216);stroke-width:1px;"/>
    </g>
    <g transform="matrix(-1,0,0,1,791.453,-319.07)">
        <path d="M141.425,450.973C131.383,423.067 143.156,392.005 169.172,377.766C201.641,360.064 251.873,350.7 315.31,395.83C421.107,471.095 525.92,443.421 543.299,438.057C545.811,437.267 548.381,436.675 550.986,436.285C579.411,432.088 717.684,425.423 784.47,676.319C784.47,676.319 784.47,676.32 784.47,676.32C845.253,904.639 455.537,886.397 330.306,874.856C307.275,872.508 287.634,857.155 279.795,835.372C249.377,750.981 172.826,538.239 141.425,450.973Z" style="fill:rgb(223,7,38);fill-rule:nonzero;stroke:rgb(32,51,203);stroke-width:1px;"/>
    </g>
    <g transform="matrix(-1,0,0,1,791.453,-319.07)">
        <path d="M180,470.541C169.568,441.538 182.721,409.34 210.477,395.937C241.105,381.178 286.405,375.606 342.77,415.71C442.446,486.631 541.205,460.527 557.552,455.478C559.909,454.736 562.321,454.18 564.765,453.813C591.45,449.874 721.374,443.626 784.739,679.705C784.739,679.707 784.74,679.709 784.74,679.711C842.088,893.287 479.686,877.941 359.191,867.151C336.088,864.865 316.362,849.489 308.504,827.644C279.693,747.696 209.918,553.715 180,470.541Z" style="fill:rgb(207,11,51);fill-rule:nonzero;stroke:rgb(48,47,189);stroke-width:1px;"/>
    </g>
    <g transform="matrix(-1,0,0,1,791.453,-319.07)">
        <path d="M218.639,490.298C207.68,459.833 222.773,426.156 252.805,414.061C281.285,402.639 321.319,400.792 370.23,435.59C463.799,502.16 556.492,477.637 571.798,472.907C573.996,472.216 576.244,471.697 578.522,471.355C603.438,467.675 725.04,461.82 784.995,683.171C784.997,683.179 784.999,683.187 785.001,683.195C838.938,882.002 503.747,869.473 388.157,859.459C364.977,857.242 345.158,841.847 337.276,819.936C310.129,744.624 247.042,569.253 218.639,490.298Z" style="fill:rgb(191,15,65);fill-rule:nonzero;stroke:rgb(64,44,175);stroke-width:1px;"/>
    </g>
    <g transform="matrix(-1,0,0,1,791.453,-319.07)">
        <path d="M257.381,510.353C251.732,494.646 252.857,477.297 260.488,462.451C268.118,447.604 281.57,436.591 297.631,432.042C323.343,424.755 357.262,426.735 397.66,455.47C485.104,517.669 571.78,494.729 586.038,490.325C588.075,489.684 590.158,489.203 592.269,488.886C615.419,485.464 728.701,479.995 785.245,686.551C785.247,686.559 785.249,686.567 785.251,686.575C835.732,870.683 527.603,860.916 417.084,851.708C393.813,849.571 373.885,834.15 365.977,812.16C340.591,741.73 284.201,584.931 257.381,510.353Z" style="fill:rgb(175,18,79);fill-rule:nonzero;stroke:rgb(80,40,161);stroke-width:1px;"/>
    </g>
    <g transform="matrix(-1,0,0,1,791.453,-319.07)">
        <path d="M296.343,530.97C290.092,513.595 292.159,494.312 301.95,478.657C311.742,463.001 328.175,452.704 346.534,450.721C368.207,448.355 394.694,453.668 425.14,475.32C506.496,533.178 587.108,511.819 600.325,507.734C602.204,507.142 604.126,506.698 606.074,506.405C627.475,503.241 732.416,498.178 785.543,689.945C785.546,689.956 785.549,689.966 785.552,689.977C832.594,859.429 551.363,852.321 446.119,843.948C422.749,841.901 402.701,826.457 394.76,804.383C371.243,739.176 321.544,601.024 296.343,530.97Z" style="fill:rgb(159,22,93);fill-rule:nonzero;stroke:rgb(96,36,147);stroke-width:1px;"/>
    </g>
    <g transform="matrix(-1,0,0,1,791.453,-319.07)">
        <path d="M335.744,552.854C328.563,532.891 332.418,510.622 345.891,494.234C359.364,477.846 380.467,469.758 401.442,472.942C416.713,475.244 433.844,481.878 452.6,495.22C526.665,547.903 600.057,529.549 613.96,525.363C615.601,524.822 617.28,524.403 618.984,524.111C636.449,521.242 735.273,513.633 785.816,693.396C785.818,693.402 785.819,693.408 785.821,693.414C829.404,848.246 574.906,843.723 475.148,836.223C451.659,834.284 431.466,818.808 423.489,796.63C402.051,737.197 359.259,618.23 335.744,552.854Z" style="fill:rgb(143,25,106);fill-rule:nonzero;stroke:rgb(112,33,134);stroke-width:1px;"/>
    </g>
    <g transform="matrix(-1,0,0,1,791.453,-319.07)">
        <path d="M376.05,577.258C367.902,554.602 374.033,529.27 391.639,512.848C409.246,496.426 434.942,492.07 456.977,501.773C464.331,505.035 472.034,509.408 480.06,515.12C548.12,563.55 615.57,546.635 628.276,542.805C629.77,542.311 631.298,541.93 632.849,541.664C648.784,539.049 739.003,532.143 786.083,696.835C786.086,696.846 786.089,696.857 786.092,696.868C826.271,837.133 598.259,835.086 504.224,828.5C480.594,826.69 460.23,811.176 452.21,788.875C433.186,736.142 397.724,637.53 376.05,577.258Z" style="fill:rgb(128,29,120);fill-rule:nonzero;stroke:rgb(128,29,120);stroke-width:1px;"/>
    </g>
    <g transform="matrix(-1,0,0,1,791.453,-319.07)">
        <path d="M417.07,603.576C408.269,579.112 416.38,551.767 437.097,536.059C457.813,520.35 486.332,519.919 507.513,534.994C507.515,534.997 507.518,534.998 507.52,535C569.568,579.166 631.064,563.684 642.595,560.199C643.947,559.751 645.332,559.406 646.736,559.166C661.177,556.804 742.769,550.655 786.371,700.241C786.375,700.253 786.379,700.266 786.383,700.279C823.126,826.038 621.391,826.316 533.384,820.678C509.595,819.02 489.032,803.467 480.96,781.028C464.611,735.744 436.462,657.486 417.07,603.576Z" style="fill:rgb(112,33,134);fill-rule:nonzero;stroke:rgb(143,25,106);stroke-width:1px;"/>
    </g>
    <g transform="matrix(-1,0,0,1,791.453,-319.07)">
        <path d="M453.331,616.774C445.391,594.69 452.713,570.008 471.411,555.826C490.109,541.644 515.851,541.247 534.977,554.847C534.978,554.848 534.979,554.849 534.98,554.85C591.037,594.711 646.573,580.674 656.894,577.549C658.097,577.15 659.328,576.843 660.577,576.63C673.476,574.521 746.487,569.058 786.6,703.62C786.6,703.62 786.6,703.62 786.6,703.62C819.912,814.929 644.188,817.423 562.529,812.8C538.537,811.332 517.722,795.725 509.59,773.105C494.681,731.799 470.292,663.954 453.331,616.774Z" style="fill:rgb(96,36,147);fill-rule:nonzero;stroke:rgb(159,22,93);stroke-width:1px;"/>
    </g>
    <g transform="matrix(-1,0,0,1,791.453,-319.07)">
        <path d="M489.616,629.96C482.531,610.266 489.058,588.252 505.732,575.602C522.406,562.951 545.364,562.596 562.422,574.723C562.424,574.726 562.427,574.728 562.43,574.73C612.496,610.33 662.113,597.745 671.218,594.987C672.267,594.639 673.34,594.371 674.43,594.185C685.767,592.333 750.212,587.536 786.9,707.08C786.9,707.08 786.9,707.08 786.9,707.08C816.759,804.015 666.771,808.528 591.895,804.97C567.665,803.74 546.546,788.078 538.335,765.249C524.93,728.138 504.197,670.497 489.616,629.96Z" style="fill:rgb(80,40,161);fill-rule:nonzero;stroke:rgb(175,18,79);stroke-width:1px;"/>
    </g>
    <g transform="matrix(-1,0,0,1,791.453,-319.07)">
        <path d="M525.9,643.15C519.674,625.84 525.411,606.493 540.066,595.374C554.721,584.256 574.899,583.944 589.891,594.603C589.894,594.606 589.897,594.608 589.9,594.61C633.975,625.951 677.64,614.807 685.537,612.407C686.436,612.108 687.357,611.878 688.292,611.718C698.092,610.12 753.943,606.016 787.17,710.51C787.17,710.51 787.17,710.51 787.17,710.51C813.545,793.133 688.947,799.459 621.354,797.044C596.818,796.123 575.304,780.385 566.995,757.281C555.214,724.659 538.104,677.085 525.9,643.15Z" style="fill:rgb(64,44,175);fill-rule:nonzero;stroke:rgb(191,15,65);stroke-width:1px;"/>
    </g>
    <g transform="matrix(-1,0,0,1,791.453,-319.07)">
        <path d="M562.172,656.326C556.805,641.406 561.75,624.73 574.382,615.148C587.014,605.566 604.405,605.298 617.327,614.487C617.327,614.488 617.329,614.489 617.33,614.49C655.413,641.575 693.127,631.874 699.829,629.83C700.579,629.58 701.347,629.387 702.127,629.254C710.368,627.911 757.644,624.478 787.42,713.95C810.306,782.352 710.663,790.201 651.009,789.007C626.081,788.497 604.049,772.668 595.611,749.206C585.586,721.429 572.024,683.72 562.172,656.326Z" style="fill:rgb(48,47,189);fill-rule:nonzero;stroke:rgb(207,11,51);stroke-width:1px;"/>
    </g>
    <g transform="matrix(-1,0,0,1,791.453,-319.07)">
        <path d="M598.455,669.535C593.945,656.996 598.099,642.981 608.713,634.925C619.328,626.87 633.944,626.639 644.807,634.357C644.808,634.358 644.809,634.359 644.81,634.36C676.889,657.153 708.679,648.891 714.168,647.209C714.771,647.008 715.388,646.853 716.014,646.746C722.73,645.658 761.384,642.943 787.694,717.286C787.701,717.304 787.707,717.322 787.714,717.34C806.996,771.67 731.792,780.678 680.969,780.806C655.515,780.873 632.77,764.926 624.156,740.975C616.071,718.517 605.977,690.451 598.455,669.535Z" style="fill:rgb(32,51,203);fill-rule:nonzero;stroke:rgb(223,7,38);stroke-width:1px;"/>
    </g>
    <g transform="matrix(-1,0,0,1,791.453,-319.07)">
        <path d="M634.74,682.721C631.089,672.57 634.451,661.223 643.045,654.7C651.638,648.178 663.471,647.99 672.267,654.237C672.268,654.238 672.269,654.239 672.27,654.24C689.835,666.717 707.298,667.691 718.135,666.593C741.099,664.227 763.394,675.204 775.52,694.848C779.755,701.831 783.977,710.335 787.978,720.719C787.983,720.732 787.988,720.744 787.993,720.757C803.553,761.07 752.234,770.704 711.556,772.26C685.352,773.244 661.525,757.152 652.651,732.477C646.701,715.976 639.957,697.226 634.74,682.721Z" style="fill:rgb(16,54,216);fill-rule:nonzero;stroke:rgb(239,4,24);stroke-width:1px;"/>
    </g>
    <g transform="matrix(-1,0,0,1,791.453,-319.07)">
        <path d="M671.012,695.904C668.22,688.139 670.792,679.461 677.364,674.472C683.936,669.483 692.986,669.338 699.714,674.115C699.716,674.117 699.718,674.118 699.72,674.12C710.922,682.076 722.069,683.914 730.271,683.818C753.332,683.491 774.552,696.374 784.903,716.985C786.018,719.238 787.137,721.629 788.25,724.17C799.65,750.199 772.173,759.645 744.201,762.805C716.51,765.886 690.322,749.563 680.895,723.344C677.432,713.757 673.913,703.971 671.012,695.904Z" style="fill:rgb(0,58,230);fill-rule:nonzero;stroke:rgb(255,0,10);stroke-width:1px;"/>
    </g>
</svg>
