<svg id="_1er_plan_haut_droite" data-name="1er plan haut droite" xmlns="http://www.w3.org/2000/svg" viewBox="0 0 767.9 438.52"><defs><style>.cls-1{fill:#ff000a;stroke:#003ae6;}.cls-1,.cls-10,.cls-11,.cls-12,.cls-13,.cls-14,.cls-15,.cls-16,.cls-17,.cls-2,.cls-3,.cls-4,.cls-5,.cls-6,.cls-7,.cls-8,.cls-9{stroke-miterlimit:10;}.cls-2{fill:#ef0418;stroke:#1036d8;}.cls-3{fill:#df0726;stroke:#2033cb;}.cls-4{fill:#cf0b33;stroke:#302fbd;}.cls-5{fill:#bf0f41;stroke:#402caf;}.cls-6{fill:#af124f;stroke:#5028a1;}.cls-7{fill:#9f165d;stroke:#602493;}.cls-8{fill:#8f196a;stroke:#702186;}.cls-9{fill:#801d78;stroke:#801d78;}.cls-10{fill:#702186;stroke:#8f196a;}.cls-11{fill:#602493;stroke:#9f165d;}.cls-12{fill:#5028a1;stroke:#af124f;}.cls-13{fill:#402caf;stroke:#bf0f41;}.cls-14{fill:#302fbd;stroke:#cf0b33;}.cls-15{fill:#2033cb;stroke:#df0726;}.cls-16{fill:#1036d8;stroke:#ef0418;}.cls-17{fill:#003ae6;stroke:#ff000a;}</style></defs><title>1er_plan_haut_droite</title><path class="cls-1" d="M38.53,380.66s350.24-19.59,369.34,78.72S452.68,605,582.69,605c163,0,220.67-196.43,220.67-196.43l-320.53-241Z" transform="translate(-36.04 -166.94)"/><path class="cls-2" d="M63.89,373.59s332.86-18.72,351.05,74.93,43.35,138.87,166.47,138.35c154.08-.53,208.94-182.73,208.94-182.73L487.8,171Z" transform="translate(-36.04 -166.94)"/><path class="cls-3" d="M89.25,366.53S404.73,348.66,422,437.66s41.89,132.16,158.1,131.11c145.12-1,197.21-169,197.21-169L492.77,174.54Z" transform="translate(-36.04 -166.94)"/><path class="cls-4" d="M114.62,359.47s298.09-17,314.47,67.33,40.44,125.46,149.75,123.88C715,549.1,764.32,395.37,764.32,395.37L497.74,178Z" transform="translate(-36.04 -166.94)"/><path class="cls-5" d="M140,352.41S420.68,336.26,436.17,416s39,118.53,141.38,116.64C704.74,530.23,751.3,391,751.3,391L502.71,181.55Z" transform="translate(-36.04 -166.94)"/><path class="cls-6" d="M165.34,345.35s263.32-15.29,277.9,59.74,37.51,111.78,133,109.4c118.22-2.94,162-127.9,162-127.9L507.68,185.06Z" transform="translate(-36.04 -166.94)"/><path class="cls-7" d="M190.71,338.29s245.93-14.43,259.6,55.94S486.37,499.26,575,496.4c109.24-3.52,150.28-114.19,150.28-114.19L512.65,188.56Z" transform="translate(-36.04 -166.94)"/><path class="cls-8" d="M216.07,331.22s228.55-13.57,241.32,52.15S492,481.65,573.7,478.31C674,474.21,712.25,377.82,712.25,377.82L517.62,192.07Z" transform="translate(-36.04 -166.94)"/><path class="cls-9" d="M241.43,324.16s211.17-12.71,223,48.35,33.13,91.53,108,87.7c91.3-4.67,126.82-86.78,126.82-86.78L522.59,195.58Z" transform="translate(-36.04 -166.94)"/><path class="cls-10" d="M266.79,317.1s193.79-11.85,204.75,44.55,31.66,84.79,99.59,80.47C653.46,436.88,686.22,369,686.22,369l-158.66-170Z" transform="translate(-36.04 -166.94)"/><path class="cls-11" d="M292.16,310s176.4-11,186.45,40.75,30.2,78,91.24,73.24c73.35-5.79,103.36-59.37,103.36-59.37L532.53,202.59Z" transform="translate(-36.04 -166.94)"/><path class="cls-12" d="M317.52,303s159-10.13,168.17,36.95,28.73,71.33,82.88,66c64.37-6.33,91.62-45.66,91.62-45.66L537.51,206.1Z" transform="translate(-36.04 -166.94)"/><path class="cls-13" d="M342.88,295.92s141.64-9.28,149.88,33.16,27.26,64.61,74.52,58.76c55.4-6.86,79.9-32,79.9-32L542.48,209.6Z" transform="translate(-36.04 -166.94)"/><path class="cls-14" d="M368.25,288.85s124.25-8.41,131.59,29.37,25.78,57.92,66.16,51.53c46.41-7.35,68.16-18.26,68.16-18.26L547.45,213.11Z" transform="translate(-36.04 -166.94)"/><path class="cls-15" d="M393.61,281.79s106.87-7.55,113.3,25.57,24.32,51.27,57.8,44.29c37.44-7.8,56.44-4.54,56.44-4.54L552.42,216.62Z" transform="translate(-36.04 -166.94)"/><path class="cls-16" d="M419,274.73s89.49-6.69,95,21.77,22.86,44.69,49.44,37.06c28.48-8.17,44.7,9.16,44.7,9.16l-50.74-122.6Z" transform="translate(-36.04 -166.94)"/><path class="cls-17" d="M444.33,267.67s72.11-5.83,76.73,18,21.49,38.24,41.09,29.83,33,22.86,33,22.86l-32.76-114.7Z" transform="translate(-36.04 -166.94)"/></svg>