<svg id="_2e_plan_haut_droite" data-name="2e plan haut droite" xmlns="http://www.w3.org/2000/svg" viewBox="0 0 562.05 434.99"><defs><style>.cls-1{fill:#003ae6;stroke:#ff000a;}.cls-1,.cls-10,.cls-11,.cls-12,.cls-13,.cls-14,.cls-15,.cls-16,.cls-17,.cls-2,.cls-3,.cls-4,.cls-5,.cls-6,.cls-7,.cls-8,.cls-9{stroke-miterlimit:10;}.cls-2{fill:#1036d8;stroke:#ef0418;}.cls-3{fill:#2033cb;stroke:#df0726;}.cls-4{fill:#302fbd;stroke:#cf0b33;}.cls-5{fill:#402caf;stroke:#bf0f41;}.cls-6{fill:#5028a1;stroke:#af124f;}.cls-7{fill:#602493;stroke:#9f165d;}.cls-8{fill:#702186;stroke:#8f196a;}.cls-9{fill:#801d78;stroke:#801d78;}.cls-10{fill:#8f196a;stroke:#702186;}.cls-11{fill:#9f165d;stroke:#602493;}.cls-12{fill:#af124f;stroke:#5028a1;}.cls-13{fill:#bf0f41;stroke:#402caf;}.cls-14{fill:#cf0b33;stroke:#302fbd;}.cls-15{fill:#df0726;stroke:#2033cb;}.cls-16{fill:#ef0418;stroke:#1036d8;}.cls-17{fill:#ff000a;stroke:#003ae6;}</style></defs><title>2e_plan_haut_droite</title><path class="cls-1" d="M254.39,185.19S161.56,325.37,353.65,377c93.49,25.15,86.34,80.3,48.31,99.25-26.37,13.15-40.4,43.07-32.24,71.39,11.64,40.44,68.33,83.39,266.62,68.47,352.52-26.53,0-423.22,0-423.22Z" transform="translate(-231.47 -184.68)"/><path class="cls-2" d="M266.05,185.93s-88.31,133.35,94.43,182.5c88.93,23.92,82.12,76.38,45.95,94.41-25.09,12.51-38.43,41-30.67,67.91,11.08,38.47,65,79.33,253.63,65.14,335.35-25.24,0-402.61,0-402.61Z" transform="translate(-231.47 -184.68)"/><path class="cls-3" d="M277.71,186.67S193.93,313.19,367.3,359.82c84.38,22.7,77.92,72.47,43.6,89.58-23.8,11.87-36.46,38.87-29.1,64.43,10.51,36.5,61.67,75.27,240.64,61.8,318.17-23.94,0-382,0-382Z" transform="translate(-231.47 -184.68)"/><path class="cls-4" d="M289.37,187.41S210.11,307.1,374.13,351.22C454,372.69,447.84,419.77,415.37,436c-22.52,11.22-34.49,36.77-27.53,61,9.94,34.53,58.34,71.21,227.65,58.46,301-22.65,0-361.36,0-361.36Z" transform="translate(-231.47 -184.68)"/><path class="cls-5" d="M301,188.15S226.29,301,381,342.61c75.27,20.24,69.51,64.64,38.89,79.91-21.23,10.58-32.53,34.67-26,57.47,9.38,32.56,55,67.14,214.66,55.13,283.82-21.36,0-340.74,0-340.74Z" transform="translate(-231.47 -184.68)"/><path class="cls-6" d="M312.69,188.89s-70.21,106,75.08,145.11c70.72,19,65.3,60.74,36.54,75.08-19.95,9.94-30.56,32.57-24.39,54,8.81,30.59,51.69,63.08,201.67,51.79,266.65-20.06,0-320.12,0-320.12Z" transform="translate(-231.47 -184.68)"/><path class="cls-7" d="M324.35,189.63s-65.69,99.2,70.25,135.77c66.16,17.79,61.09,56.82,34.18,70.23-18.66,9.31-28.59,30.48-22.82,50.52,8.24,28.62,48.36,59,188.69,48.46,249.46-18.78,0-299.5,0-299.5Z" transform="translate(-231.47 -184.68)"/><path class="cls-8" d="M336,190.37s-61.17,92.38,65.41,126.42c61.6,16.57,56.89,52.91,31.83,65.4-17.38,8.67-26.62,28.38-21.25,47,7.68,26.65,45,54.95,175.7,45.12,232.29-17.48,0-278.88,0-278.88Z" transform="translate(-231.47 -184.68)"/><path class="cls-9" d="M347.67,191.12S291,276.66,408.24,308.19c57.05,15.34,52.69,49,29.48,60.56-16.09,8-24.65,26.28-19.68,43.56,7.11,24.68,41.7,50.89,162.71,41.79,215.12-16.19,0-258.27,0-258.27Z" transform="translate(-231.47 -184.68)"/><path class="cls-10" d="M359.33,191.86s-52.12,78.71,55.74,107.72c52.49,14.12,48.47,45.08,27.12,55.73-14.81,7.38-22.68,24.18-18.1,40.08,6.54,22.71,38.37,46.83,149.71,38.45,197.94-14.9,0-237.64,0-237.64Z" transform="translate(-231.47 -184.68)"/><path class="cls-11" d="M371,192.6s-47.6,71.88,50.9,98.37c47.94,12.9,44.27,41.18,24.77,50.9-13.52,6.74-20.71,22.08-16.53,36.6,6,20.74,35,42.77,136.72,35.11,180.77-13.6,0-217,0-217Z" transform="translate(-231.47 -184.68)"/><path class="cls-12" d="M382.65,193.34s-43.08,65,46.06,89c43.39,11.67,40.07,37.26,22.42,46.06-12.24,6.1-18.75,20-15,33.12,5.4,18.77,31.71,38.7,123.73,31.78,163.59-12.31,0-196.4,0-196.4Z" transform="translate(-231.47 -184.68)"/><path class="cls-13" d="M394.31,194.08s-38.56,58.22,41.23,79.68c38.83,10.45,35.86,33.35,20.06,41.22a25.47,25.47,0,0,0-13.39,29.65c4.84,16.8,28.38,34.64,110.74,28.44,146.42-11,0-175.78,0-175.78Z" transform="translate(-231.47 -184.68)"/><path class="cls-14" d="M406,194.82s-34,51.39,36.39,70.34c34.28,9.21,31.65,29.43,17.71,36.38a22.48,22.48,0,0,0-11.82,26.18c4.27,14.82,25.05,30.57,97.75,25.1,129.24-9.73,0-155.17,0-155.17Z" transform="translate(-231.47 -184.68)"/><path class="cls-15" d="M417.63,195.56s-29.51,44.56,31.56,61c29.72,8,27.44,25.52,15.35,31.55a19.5,19.5,0,0,0-10.25,22.7c3.7,12.85,21.72,26.51,84.76,21.76,112.07-8.43,0-134.54,0-134.54Z" transform="translate(-231.47 -184.68)"/><path class="cls-16" d="M429.29,196.3S404.3,234,456,247.94c25.16,6.77,23.24,21.62,13,26.72a16.51,16.51,0,0,0-8.68,19.22c3.14,10.88,18.4,22.44,71.77,18.43,94.9-7.14,0-113.93,0-113.93Z" transform="translate(-231.47 -184.68)"/><path class="cls-17" d="M441,197s-20.47,30.91,21.88,42.3c20.61,5.54,19,17.7,10.65,21.88A13.53,13.53,0,0,0,466.37,277c2.57,8.91,15.07,18.38,58.78,15.09,77.72-5.85,0-93.3,0-93.3Z" transform="translate(-231.47 -184.68)"/></svg>