<svg id="_3e_plan_bas_gauche" data-name="3e plan bas gauche" xmlns="http://www.w3.org/2000/svg" viewBox="0 0 679.64 596.78"><defs><style>.cls-1{fill:#003ae6;stroke:#ff000a;}.cls-1,.cls-10,.cls-11,.cls-12,.cls-13,.cls-14,.cls-15,.cls-16,.cls-17,.cls-2,.cls-3,.cls-4,.cls-5,.cls-6,.cls-7,.cls-8,.cls-9{stroke-miterlimit:10;}.cls-2{fill:#1036d8;stroke:#ef0418;}.cls-3{fill:#2033cb;stroke:#df0726;}.cls-4{fill:#302fbd;stroke:#cf0b33;}.cls-5{fill:#402caf;stroke:#bf0f41;}.cls-6{fill:#5028a1;stroke:#af124f;}.cls-7{fill:#602493;stroke:#9f165d;}.cls-8{fill:#702186;stroke:#8f196a;}.cls-9{fill:#801d78;stroke:#801d78;}.cls-10{fill:#8f196a;stroke:#702186;}.cls-11{fill:#9f165d;stroke:#602493;}.cls-12{fill:#af124f;stroke:#5028a1;}.cls-13{fill:#bf0f41;stroke:#402caf;}.cls-14{fill:#cf0b33;stroke:#302fbd;}.cls-15{fill:#df0726;stroke:#2033cb;}.cls-16{fill:#ef0418;stroke:#1036d8;}.cls-17{fill:#ff000a;stroke:#003ae6;}</style></defs><title>3e_plan_bas_gauche</title><path class="cls-1" d="M157.23,281.47S279.87,169.62,453.29,263c103,55.45,115.25,118.08,128,174.88,8.89,39.69,26.28,75.19,61.9,94.83,57,31.4,130.49,94.38,125.46,209-8.14,185.54-678.34-10.35-678.34-10.35Z" transform="translate(-89.73 -225.3)"/><path class="cls-2" d="M160.64,280.59S277.42,174.1,442.53,263c98,52.79,109.73,112.42,121.84,166.5,8.47,37.8,25,71.59,59,90.29,54.22,29.9,124.23,89.86,119.44,199C735,895.45,96.92,709,96.92,709Z" transform="translate(-89.73 -225.3)"/><path class="cls-3" d="M164.06,279.72S275,178.58,431.77,263C524.87,313.16,536,369.79,547.48,421.15c8,35.9,23.77,68,56,85.75,51.5,28.4,118,85.34,113.44,189-7.36,167.77-613.36-9.36-613.36-9.36Z" transform="translate(-89.73 -225.3)"/><path class="cls-4" d="M167.48,278.84S272.5,183.06,421,263c88.17,47.49,98.69,101.12,109.58,149.75,7.61,34,22.51,64.39,53,81.21C632.37,520.88,695.34,574.81,691,673c-7,158.88-580.87-8.86-580.87-8.86Z" transform="translate(-89.73 -225.3)"/><path class="cls-5" d="M170.9,278S270.05,187.54,410.24,263c83.25,44.83,93.18,95.46,103.46,141.38,7.19,32.09,21.25,60.78,50,76.66,46,25.39,105.48,76.3,101.42,169-6.58,150-548.38-8.36-548.38-8.36Z" transform="translate(-89.73 -225.3)"/><path class="cls-6" d="M174.31,277.09s93.28-85.06,225.17-14c78.31,42.17,87.65,89.8,97.33,133,6.76,30.19,20,57.19,47.08,72.12,43.31,23.89,99.23,71.78,95.41,159-6.19,141.11-515.89-7.87-515.89-7.87Z" transform="translate(-89.73 -225.3)"/><path class="cls-7" d="M177.73,276.21s87.4-79.7,211-13.15c73.38,39.51,82.13,84.15,91.2,124.62,6.33,28.29,18.73,53.59,44.11,67.59,40.59,22.37,93,67.25,89.41,148.93C607.64,736.42,130,596.83,130,596.83Z" transform="translate(-89.73 -225.3)"/><path class="cls-8" d="M181.15,275.34S262.68,201,378,263.07c68.44,36.86,76.61,78.49,85.06,116.25,5.91,26.38,17.48,50,41.16,63,37.85,20.87,86.73,62.73,83.39,138.92-5.41,123.34-450.91-6.88-450.91-6.88Z" transform="translate(-89.73 -225.3)"/><path class="cls-9" d="M184.57,274.46s75.65-69,182.62-11.38c63.52,34.2,71.1,72.83,78.94,107.87,5.49,24.48,16.22,46.38,38.19,58.5,35.13,19.37,80.49,58.21,77.38,128.91-5,114.45-418.42-6.38-418.42-6.38Z" transform="translate(-89.73 -225.3)"/><path class="cls-10" d="M188,273.59S257.76,210,356.43,263.08c58.58,31.55,65.57,67.19,72.81,99.5,5.06,22.59,15,42.78,35.22,54,32.4,17.86,74.24,53.69,71.38,118.9C531.21,641,149.9,529.56,149.9,529.56Z" transform="translate(-89.73 -225.3)"/><path class="cls-11" d="M191.4,272.71s63.91-58.28,154.27-9.62c53.65,28.89,60.05,61.53,66.68,91.12C417,374.9,426,393.39,444.61,403.63c29.67,16.36,68,49.17,65.36,108.9-4.24,96.67-353.44-5.4-353.44-5.4Z" transform="translate(-89.73 -225.3)"/><path class="cls-12" d="M194.82,271.84s58-52.93,140.09-8.74c48.72,26.24,54.53,55.87,60.55,82.75,4.2,18.78,12.43,35.57,29.29,44.87,26.95,14.86,61.74,44.65,59.36,98.89-3.85,87.78-321-4.9-321-4.9Z" transform="translate(-89.73 -225.3)"/><path class="cls-13" d="M198.24,271s52.15-47.57,125.9-7.85c43.79,23.58,49,50.21,54.43,74.37,3.78,16.88,11.17,32,26.32,40.33,24.22,13.35,55.49,40.13,53.35,88.88-3.46,78.9-288.47-4.41-288.47-4.41Z" transform="translate(-89.73 -225.3)"/><path class="cls-14" d="M201.66,270.08s46.28-42.2,111.72-7c38.86,20.92,43.49,44.56,48.29,66,3.36,15,9.92,28.38,23.37,35.79,21.49,11.85,49.23,35.61,47.34,78.87-3.07,70-256-3.91-256-3.91Z" transform="translate(-89.73 -225.3)"/><path class="cls-15" d="M205.07,269.21s40.41-36.85,97.55-6.08c33.92,18.27,38,38.9,42.16,57.61,2.93,13.08,8.66,24.78,20.4,31.25,18.76,10.34,43,31.09,41.33,68.86C403.83,482,183,417.44,183,417.44Z" transform="translate(-89.73 -225.3)"/><path class="cls-16" d="M208.49,268.33s34.54-31.49,83.37-5.2c29,15.62,32.45,33.25,36,49.25,2.5,11.17,7.4,21.17,17.43,26.7,16,8.84,36.74,26.57,35.33,58.85-2.29,52.24-191-2.92-191-2.92Z" transform="translate(-89.73 -225.3)"/><path class="cls-17" d="M211.91,267.46s28.66-26.14,69.18-4.32C305.16,276.1,308,290.74,311,304c2.08,9.27,6.14,17.57,14.47,22.16,13.3,7.34,30.49,22.05,29.31,48.84-1.9,43.35-158.51-2.42-158.51-2.42Z" transform="translate(-89.73 -225.3)"/></svg>