<svg id="_3e_plan_haut_droite" data-name="3e plan haut droite" xmlns="http://www.w3.org/2000/svg" viewBox="0 0 691.94 505.46"><defs><style>.cls-1{opacity:0.92;}.cls-2{fill:#ff000a;stroke:#003ae6;}.cls-10,.cls-11,.cls-12,.cls-13,.cls-14,.cls-15,.cls-16,.cls-17,.cls-18,.cls-2,.cls-3,.cls-4,.cls-5,.cls-6,.cls-7,.cls-8,.cls-9{stroke-miterlimit:10;}.cls-3{fill:#ef0418;stroke:#1036d8;}.cls-4{fill:#df0726;stroke:#2033cb;}.cls-5{fill:#cf0b33;stroke:#302fbd;}.cls-6{fill:#bf0f41;stroke:#402caf;}.cls-7{fill:#af124f;stroke:#5028a1;}.cls-8{fill:#9f165d;stroke:#602493;}.cls-9{fill:#8f196a;stroke:#702186;}.cls-10{fill:#801d78;stroke:#801d78;}.cls-11{fill:#702186;stroke:#8f196a;}.cls-12{fill:#602493;stroke:#9f165d;}.cls-13{fill:#5028a1;stroke:#af124f;}.cls-14{fill:#402caf;stroke:#bf0f41;}.cls-15{fill:#302fbd;stroke:#cf0b33;}.cls-16{fill:#2033cb;stroke:#df0726;}.cls-17{fill:#1036d8;stroke:#ef0418;}.cls-18{fill:#003ae6;stroke:#ff000a;}</style></defs><title>3e_plan_haut_droite</title><g class="cls-1"><path class="cls-2" d="M409.57,723.13c149.79,47.8,298.7-132.63,298.7-132.63l58.11-315.57L631.07,226.74S227.4,222,113.34,356.23C26.9,458,107.6,544.34,166.73,580.34,166.73,580.34,274.53,680,409.57,723.13Z" transform="translate(-75.01 -226.22)"/><path class="cls-3" d="M626.73,227.24s-388.55-4.63-498.31,123.93c-83.87,98.09-.56,180.19,54.88,213.94,0,0,99.83,96.52,230.35,137.63,144.34,45.54,287.48-127,287.48-127L757,273.44Z" transform="translate(-75.01 -226.22)"/><path class="cls-4" d="M622.4,227.74S249,223.21,143.5,346.11c-81.29,94.46,4.62,172.27,56.37,203.76,0,0,91.87,93.35,217.86,132.49C556.63,725.63,694,561,694,561L747.61,272Z" transform="translate(-75.01 -226.22)"/><path class="cls-5" d="M618.07,228.24s-358.33-4.43-459.49,112.81c-78.71,90.84,9.81,164.35,57.86,193.59,0,0,83.9,90.17,205.37,127.34,133.46,41,265.06-115.71,265.06-115.71l51.35-275.81Z" transform="translate(-75.01 -226.22)"/><path class="cls-6" d="M613.74,228.74S270.52,224.41,173.67,336c-76.15,87.21,15,156.42,59.34,183.42,0,0,75.93,87,192.88,122.19,128,38.72,253.84-110.08,253.84-110.08L728.84,269Z" transform="translate(-75.01 -226.22)"/><path class="cls-7" d="M609.4,229.24S281.29,225,188.75,330.93c-73.57,83.58,20.17,148.5,60.82,173.25,0,0,68,83.81,180.4,117C552.54,657.67,672.6,516.78,672.6,516.78l46.85-249.3Z" transform="translate(-75.01 -226.22)"/><path class="cls-8" d="M605.07,229.74s-312.78-3.94-401.24,96.13C133,406,229.18,466.45,266.14,489c0,0,60,80.63,167.91,111.88C551.18,635,665.46,502,665.46,502l44.6-236Z" transform="translate(-75.01 -226.22)"/><path class="cls-9" d="M600.74,230.24s-297.66-3.82-381.83,90.57c-68.22,76.49,30.53,132.66,63.8,152.9,0,0,52,77.46,155.42,106.74,111.68,31.92,220.2-93.16,220.2-93.16L700.68,264.5Z" transform="translate(-75.01 -226.22)"/><path class="cls-10" d="M596.41,230.74S313.88,227,234,315.75c-65.63,72.88,35.72,124.73,65.29,142.73,0,0,44.07,74.28,142.93,101.58,106.24,29.66,209-87.52,209-87.52L691.29,263Z" transform="translate(-75.01 -226.22)"/><path class="cls-11" d="M592.07,231.24s-267.41-3.6-343,79.45C186,380,290,427.5,315.85,443.25c0,0,36.1,71.11,130.44,96.43,100.8,27.39,197.77-81.88,197.77-81.88l37.85-196.28Z" transform="translate(-75.01 -226.22)"/><path class="cls-12" d="M587.74,231.74s-252.3-3.49-323.59,73.89C203.68,371.27,310.24,414.52,332.41,428c0,0,28.14,67.93,118,91.28,95.35,25.12,186.56-76.25,186.56-76.25l35.59-183Z" transform="translate(-75.01 -226.22)"/><path class="cls-13" d="M583.41,232.24s-237.21-3.4-304.18,68.33c-57.89,62,51.27,101,69.75,112.22,0,0,20.18,64.75,105.47,86.13,89.91,22.84,175.35-70.61,175.35-70.61l33.33-169.76Z" transform="translate(-75.01 -226.22)"/><path class="cls-14" d="M579.08,232.74S357,229.42,294.31,295.51c-55.33,58.37,56.45,93,71.24,102,0,0,12.21,61.58,93,81,84.47,20.58,164.13-65,164.13-65l31.09-156.5Z" transform="translate(-75.01 -226.22)"/><path class="cls-15" d="M574.74,233.24s-207-3.25-265.35,57.21c-52.78,54.72,61.64,85.12,72.73,91.87,0,0,4.24,58.4,80.49,75.83,79,18.31,152.92-59.33,152.92-59.33l28.83-143.25Z" transform="translate(-75.01 -226.22)"/><path class="cls-16" d="M570.41,233.74s-192-3.19-245.94,51.65c-50.24,51.05,66.82,77.2,74.22,81.7,0,0-3.73,55.22,68,70.68,73.57,16,141.69-53.7,141.69-53.7l26.58-130Z" transform="translate(-75.01 -226.22)"/><path class="cls-17" d="M566.08,234.24s-177-3.23-226.53,46.09c-47.8,47.29,72,69.28,75.7,71.53,0,0-11.69,52,55.53,65.52,68.13,13.78,130.48-48.05,130.48-48.05l24.33-116.74Z" transform="translate(-75.01 -226.22)"/><path class="cls-18" d="M561.75,234.74s-161.9-3.13-207.12,40.53,77.19,61.35,77.19,61.35-19.65,48.87,43,60.38,119.27-42.42,119.27-42.42L616.2,251.1Z" transform="translate(-75.01 -226.22)"/></g></svg>