<svg id="_4e_plan_bas_droite" data-name="4e plan bas droite" xmlns="http://www.w3.org/2000/svg" viewBox="0 0 721.89 504.78"><defs><style>.cls-1{fill:#ff000a;stroke:#003ae6;}.cls-1,.cls-10,.cls-11,.cls-12,.cls-13,.cls-14,.cls-15,.cls-16,.cls-17,.cls-2,.cls-3,.cls-4,.cls-5,.cls-6,.cls-7,.cls-8,.cls-9{stroke-miterlimit:10;}.cls-2{fill:#ef0418;stroke:#1036d8;}.cls-3{fill:#df0726;stroke:#2033cb;}.cls-4{fill:#cf0b33;stroke:#302fbd;}.cls-5{fill:#bf0f41;stroke:#402caf;}.cls-6{fill:#af124f;stroke:#5028a1;}.cls-7{fill:#9f165d;stroke:#602493;}.cls-8{fill:#8f196a;stroke:#702186;}.cls-9{fill:#801d78;stroke:#801d78;}.cls-10{fill:#702186;stroke:#8f196a;}.cls-11{fill:#602493;stroke:#9f165d;}.cls-12{fill:#5028a1;stroke:#af124f;}.cls-13{fill:#402caf;stroke:#bf0f41;}.cls-14{fill:#302fbd;stroke:#cf0b33;}.cls-15{fill:#2033cb;stroke:#df0726;}.cls-16{fill:#1036d8;stroke:#ef0418;}.cls-17{fill:#003ae6;stroke:#ff000a;}</style></defs><title>4e_plan_bas_droite</title><path class="cls-1" d="M64,806.32S38.67,592.2,124.11,539.6s149.06-10.77,220.94-172.48C447.69,136.17,873.24,646.23,763.43,742.33S64,806.32,64,806.32Z" transform="translate(-60 -307.2)"/><path class="cls-2" d="M85.7,798.49s-24.26-205,57.53-255.33,142.7-10.31,211.5-165.11C453,157,856.71,643.29,751.59,735.29S85.7,798.49,85.7,798.49Z" transform="translate(-60 -307.2)"/><path class="cls-3" d="M107.39,790.66s-23.18-195.83,55-243.94S298.68,536.87,364.41,389c93.88-211.22,475.77,251.37,375.35,339.26S107.39,790.66,107.39,790.66Z" transform="translate(-60 -307.2)"/><path class="cls-4" d="M129.07,782.83S107,596.14,181.47,550.28s130-9.39,192.62-150.37c89.5-201.36,449.56,237.5,353.83,321.29S129.07,782.83,129.07,782.83Z" transform="translate(-60 -307.2)"/><path class="cls-5" d="M150.76,775s-21-177.54,49.83-221.16,123.59-8.92,183.19-143c85.1-191.49,423.35,223.64,332.3,303.33S150.76,775,150.76,775Z" transform="translate(-60 -307.2)"/><path class="cls-6" d="M172.45,767.17s-19.94-168.4,47.26-209.77,117.23-8.46,173.75-135.64C474.18,240.13,790.6,631.54,704.24,707.12S172.45,767.17,172.45,767.17Z" transform="translate(-60 -307.2)"/><path class="cls-7" d="M194.13,759.34S175.28,600.08,238.83,561s110.86-8,164.31-128.27C479.48,260.93,774.07,628.6,692.4,700.07S194.13,759.34,194.13,759.34Z" transform="translate(-60 -307.2)"/><path class="cls-8" d="M215.82,751.5s-17.77-150.1,42.13-187S362.44,557,412.82,443.62c72-161.9,344.72,182,267.74,249.41S215.82,751.5,215.82,751.5Z" transform="translate(-60 -307.2)"/><path class="cls-9" d="M237.5,743.67s-16.68-141,39.57-175.58S375.19,561,422.51,454.55C490.08,302.51,741,622.72,668.72,686S237.5,743.67,237.5,743.67Z" transform="translate(-60 -307.2)"/><path class="cls-10" d="M259.19,735.84s-15.61-131.81,37-164.19S388,565,432.19,465.47C495.38,323.3,724.48,619.79,656.89,679S259.19,735.84,259.19,735.84Z" transform="translate(-60 -307.2)"/><path class="cls-11" d="M280.87,728s-14.52-122.67,34.43-152.8S400.7,569,441.87,476.4C500.68,344.09,708,616.85,645.05,671.9S280.87,728,280.87,728Z" transform="translate(-60 -307.2)"/><path class="cls-12" d="M302.56,720.18s-13.44-113.52,31.86-141.41,79-5.71,117.13-91.44C506,364.89,691.43,613.91,633.21,664.86S302.56,720.18,302.56,720.18Z" transform="translate(-60 -307.2)"/><path class="cls-13" d="M324.25,712.35s-12.36-104.38,29.29-130,72.66-5.25,107.7-84.07C511.27,385.68,674.9,611,621.37,657.82S324.25,712.35,324.25,712.35Z" transform="translate(-60 -307.2)"/><path class="cls-14" d="M345.93,704.52s-11.27-95.23,26.73-118.63,66.29-4.79,98.26-76.71C516.57,406.47,658.37,608,609.53,650.78S345.93,704.52,345.93,704.52Z" transform="translate(-60 -307.2)"/><path class="cls-15" d="M367.62,696.69s-10.19-86.09,24.16-107.24,59.93-4.32,88.82-69.34c41.27-92.85,161.24,85,117.09,123.62S367.62,696.69,367.62,696.69Z" transform="translate(-60 -307.2)"/><path class="cls-16" d="M389.3,688.86s-9.1-76.94,21.6-95.85,53.56-3.86,79.38-62c36.89-83,135,71.12,95.57,105.65S389.3,688.86,389.3,688.86Z" transform="translate(-60 -307.2)"/><path class="cls-17" d="M411,681s-8-67.8,19-84.45,47.19-3.41,70-54.61c32.5-73.12,108.81,57.25,74,87.68S411,681,411,681Z" transform="translate(-60 -307.2)"/></svg>