<svg id="_4e_plan_haut_gauche" data-name="4e plan haut gauche" xmlns="http://www.w3.org/2000/svg" viewBox="0 0 742.6 780.85"><defs><style>.cls-1{fill:#003ae6;stroke:#ff000a;}.cls-1,.cls-10,.cls-11,.cls-12,.cls-13,.cls-14,.cls-15,.cls-16,.cls-17,.cls-2,.cls-3,.cls-4,.cls-5,.cls-6,.cls-7,.cls-8,.cls-9{stroke-miterlimit:10;}.cls-2{fill:#1036d8;stroke:#ef0418;}.cls-3{fill:#2033cb;stroke:#df0726;}.cls-4{fill:#302fbd;stroke:#cf0b33;}.cls-5{fill:#402caf;stroke:#bf0f41;}.cls-6{fill:#5028a1;stroke:#af124f;}.cls-7{fill:#602493;stroke:#9f165d;}.cls-8{fill:#702186;stroke:#8f196a;}.cls-9{fill:#801d78;stroke:#801d78;}.cls-10{fill:#8f196a;stroke:#702186;}.cls-11{fill:#9f165d;stroke:#602493;}.cls-12{fill:#af124f;stroke:#5028a1;}.cls-13{fill:#bf0f41;stroke:#402caf;}.cls-14{fill:#cf0b33;stroke:#302fbd;}.cls-15{fill:#df0726;stroke:#2033cb;}.cls-16{fill:#ef0418;stroke:#1036d8;}.cls-17{fill:#ff000a;stroke:#003ae6;}</style></defs><title>4e_plan_haut_gauche</title><path class="cls-1" d="M159.18,1028.9S282.59,703.64,470.71,700.37s182.41-39,196.69-119.2,29.54-115.11,81.37-142.06,58.67-188.47,58.67-188.47L65.93,370.4Z" transform="translate(-65.37 -250.05)"/><path class="cls-2" d="M160.78,999S276.84,690.27,456.62,687,631,649.8,644.66,573.53,673,464,722.51,438.34s55.76-177.93,55.76-177.93L71.18,374.14Z" transform="translate(-65.37 -250.05)"/><path class="cls-3" d="M162.38,969.16S271.09,676.9,442.53,673.71,608.8,638.25,621.92,565.89,649,462,696.25,437.58,749.1,270.19,749.1,270.19L76.43,377.89Z" transform="translate(-65.37 -250.05)"/><path class="cls-4" d="M164,939.29S265.34,663.52,428.44,660.37s158.2-33.66,170.74-102.13S625,459.91,670,436.81,719.93,280,719.93,280L81.68,381.63Z" transform="translate(-65.37 -250.05)"/><path class="cls-5" d="M165.57,909.42s94-259.27,248.77-262.38,150.14-31.88,162.1-96.44S601,457.86,643.73,436s47-146.3,47-146.3L86.93,385.37Z" transform="translate(-65.37 -250.05)"/><path class="cls-6" d="M167.17,879.55s86.67-242.77,233.08-245.84S542.32,603.62,553.7,543s23.35-87.14,63.77-107.68,44.12-135.75,44.12-135.75L92.18,389.12Z" transform="translate(-65.37 -250.05)"/><path class="cls-7" d="M168.77,849.68s79.32-226.27,217.39-229.3,134-28.31,144.79-85.07,22.12-81.55,60.26-100.81,41.21-125.21,41.21-125.21l-535,83.57Z" transform="translate(-65.37 -250.05)"/><path class="cls-8" d="M170.37,819.81S242.34,610,372.07,607,498,580.52,508.21,527.66s20.88-75.95,56.74-93.93,38.3-114.66,38.3-114.66L102.67,396.6Z" transform="translate(-65.37 -250.05)"/><path class="cls-9" d="M172,789.94s64.62-193.28,186-196.23S475.85,569,485.47,520s19.65-70.36,53.22-87.06,35.39-104.12,35.39-104.12L107.92,400.35Z" transform="translate(-65.37 -250.05)"/><path class="cls-10" d="M173.57,760.07s57.27-176.78,170.31-179.69,109.81-23,118.85-68,18.41-64.76,49.7-80.17,32.48-93.58,32.48-93.58L113.17,404.09Z" transform="translate(-65.37 -250.05)"/><path class="cls-11" d="M175.17,730.2s49.92-160.28,154.62-163.15S431.53,545.89,440,504.73s17.17-59.17,46.18-73.3,29.57-83,29.57-83L118.42,407.84Z" transform="translate(-65.37 -250.05)"/><path class="cls-12" d="M176.77,700.33S219.34,556.55,315.7,553.71s93.67-19.37,101.55-56.63,15.93-53.57,42.66-66.42,26.65-72.49,26.65-72.49L123.67,411.58Z" transform="translate(-65.37 -250.05)"/><path class="cls-13" d="M178.37,670.46S213.59,543.18,301.6,540.38s85.61-17.58,92.91-50.94,14.69-48,39.14-59.55S457.39,368,457.39,368L128.92,415.32Z" transform="translate(-65.37 -250.05)"/><path class="cls-14" d="M180,640.59S207.85,529.8,287.51,527.05s77.54-15.8,84.26-45.26,13.45-42.38,35.62-52.67,20.83-51.4,20.83-51.4L134.17,419.07Z" transform="translate(-65.37 -250.05)"/><path class="cls-15" d="M181.57,610.72s20.53-94.29,91.85-97,69.47-14,75.6-39.57,12.23-36.79,32.11-45.8,17.92-40.85,17.92-40.85L139.41,422.81Z" transform="translate(-65.37 -250.05)"/><path class="cls-16" d="M183.17,580.85s13.18-77.79,76.16-80.47,61.41-12.22,66.95-33.88,11-31.19,28.59-38.92,15-30.31,15-30.31L144.66,426.55Z" transform="translate(-65.37 -250.05)"/><path class="cls-17" d="M184.77,551s5.83-61.29,60.46-63.93,53.35-10.43,58.31-28.19,9.75-25.59,25.07-32,12.1-19.77,12.1-19.77L149.91,430.3Z" transform="translate(-65.37 -250.05)"/></svg>