<svg id="_5e_plan_haut" data-name="5e plan haut" xmlns="http://www.w3.org/2000/svg" viewBox="0 0 834.22 508.24"><defs><style>.cls-1{fill:#003ae6;stroke:#ff000a;}.cls-1,.cls-10,.cls-11,.cls-12,.cls-13,.cls-14,.cls-15,.cls-16,.cls-17,.cls-2,.cls-3,.cls-4,.cls-5,.cls-6,.cls-7,.cls-8,.cls-9{stroke-miterlimit:10;}.cls-2{fill:#1036d8;stroke:#ef0418;}.cls-3{fill:#2033cb;stroke:#df0726;}.cls-4{fill:#302fbd;stroke:#cf0b33;}.cls-5{fill:#402caf;stroke:#bf0f41;}.cls-6{fill:#5028a1;stroke:#af124f;}.cls-7{fill:#602493;stroke:#9f165d;}.cls-8{fill:#702186;stroke:#8f196a;}.cls-9{fill:#801d78;stroke:#801d78;}.cls-10{fill:#8f196a;stroke:#702186;}.cls-11{fill:#9f165d;stroke:#602493;}.cls-12{fill:#af124f;stroke:#5028a1;}.cls-13{fill:#bf0f41;stroke:#402caf;}.cls-14{fill:#cf0b33;stroke:#302fbd;}.cls-15{fill:#df0726;stroke:#2033cb;}.cls-16{fill:#ef0418;stroke:#1036d8;}.cls-17{fill:#ff000a;stroke:#003ae6;}</style></defs><title>5e_plan_haut</title><path class="cls-1" d="M9.79,394S251.73,676,276,780.2s81.95,167.06,204.62,34.16,361.3-369.93,361.3-369.93L400.5,382.53Z" transform="translate(-8.73 -382.02)"/><path class="cls-2" d="M29.11,397.43S257.46,663.41,280.34,762s77.35,158,193.14,32.31S814.3,445.4,814.3,445.4L397.87,386.07Z" transform="translate(-8.73 -382.02)"/><path class="cls-3" d="M48.42,400.86S263.19,650.81,284.71,743.74s72.76,149,181.65,30.46S786.72,446.37,786.72,446.37L395.24,389.61Z" transform="translate(-8.73 -382.02)"/><path class="cls-4" d="M67.73,404.29s201.2,233.93,221.36,321.22,68.15,139.93,170.16,28.61S759.13,447.34,759.13,447.34L392.61,393.15Z" transform="translate(-8.73 -382.02)"/><path class="cls-5" d="M87,407.72s187.62,217.9,206.42,299.55S357,838.17,452.14,734s279.4-285.73,279.4-285.73L390,396.69Z" transform="translate(-8.73 -382.02)"/><path class="cls-6" d="M106.36,411.15S280.39,613,297.83,689,356.78,810.9,445,714,704,449.28,704,449.28l-316.61-49Z" transform="translate(-8.73 -382.02)"/><path class="cls-7" d="M125.67,414.58S286.12,600.44,302.2,670.81s54.35,112.82,135.71,23.07S676.37,450.26,676.37,450.26L384.72,403.77Z" transform="translate(-8.73 -382.02)"/><path class="cls-8" d="M145,418S291.85,587.84,306.57,652.58,356.32,756.36,430.8,673.8s218-222.57,218-222.57L382.09,407.31Z" transform="translate(-8.73 -382.02)"/><path class="cls-9" d="M164.29,421.44S297.58,575.25,310.94,634.35s45.15,94.74,112.74,19.37S621.2,452.2,621.2,452.2L379.46,410.85Z" transform="translate(-8.73 -382.02)"/><path class="cls-10" d="M183.61,424.87s119.7,137.79,131.7,191.24,40.56,85.71,101.26,17.53,177-180.47,177-180.47L376.83,414.39Z" transform="translate(-8.73 -382.02)"/><path class="cls-11" d="M202.92,428.3S309.05,550.06,319.68,597.88s36,76.67,89.77,15.68S566,454.14,566,454.14L374.2,417.93Z" transform="translate(-8.73 -382.02)"/><path class="cls-12" d="M222.23,431.73s92.55,105.74,101.82,147.92,31.36,67.63,78.29,13.83S538.43,455.12,538.43,455.12L371.57,421.47Z" transform="translate(-8.73 -382.02)"/><path class="cls-13" d="M241.54,435.16s79,89.71,86.88,126.26,26.76,58.59,66.81,12S510.85,456.09,510.85,456.09L368.94,425Z" transform="translate(-8.73 -382.02)"/><path class="cls-14" d="M260.85,438.59s65.39,73.69,71.94,104.6,22.16,49.55,55.32,10.13,95.15-96.26,95.15-96.26L366.31,428.55Z" transform="translate(-8.73 -382.02)"/><path class="cls-15" d="M280.17,442s51.8,57.67,57,82.94,17.55,40.51,43.83,8.28S455.67,458,455.67,458l-92-25.94Z" transform="translate(-8.73 -382.02)"/><path class="cls-16" d="M299.48,445.45s38.22,41.64,42.06,61.27,12.95,31.48,32.35,6.44S428.09,459,428.09,459l-67-23.37Z" transform="translate(-8.73 -382.02)"/><path class="cls-17" d="M318.79,448.88s24.64,25.62,27.12,39.61,8.35,22.44,20.86,4.59S400.5,460,400.5,460l-42.08-20.8Z" transform="translate(-8.73 -382.02)"/></svg>