<svg id="_5e_plan_haut_gauche" data-name="5e plan haut gauche" xmlns="http://www.w3.org/2000/svg" viewBox="0 0 734.01 609.69"><defs><style>.cls-1{fill:#003ae6;stroke:#ff000a;}.cls-1,.cls-10,.cls-11,.cls-12,.cls-13,.cls-14,.cls-15,.cls-16,.cls-17,.cls-2,.cls-3,.cls-4,.cls-5,.cls-6,.cls-7,.cls-8,.cls-9{stroke-miterlimit:10;}.cls-2{fill:#1036d8;stroke:#ef0418;}.cls-3{fill:#2033cb;stroke:#df0726;}.cls-4{fill:#302fbd;stroke:#cf0b33;}.cls-5{fill:#402caf;stroke:#bf0f41;}.cls-6{fill:#5028a1;stroke:#af124f;}.cls-7{fill:#602493;stroke:#9f165d;}.cls-8{fill:#702186;stroke:#8f196a;}.cls-9{fill:#801d78;stroke:#801d78;}.cls-10{fill:#8f196a;stroke:#702186;}.cls-11{fill:#9f165d;stroke:#602493;}.cls-12{fill:#af124f;stroke:#5028a1;}.cls-13{fill:#bf0f41;stroke:#402caf;}.cls-14{fill:#cf0b33;stroke:#302fbd;}.cls-15{fill:#df0726;stroke:#2033cb;}.cls-16{fill:#ef0418;stroke:#1036d8;}.cls-17{fill:#ff000a;stroke:#003ae6;}</style></defs><title>5e_plan_haut_gauche</title><path class="cls-1" d="M81.53,703.18s329.76,92.56,417.65-45.26,192.06-35.08,192.06-35.08L814.4,423.24,516.88,124.91,90,136.58Z" transform="translate(-81.03 -124.41)"/><path class="cls-2" d="M86.39,685.92s314.5,89.26,398.32-43.65,183.17-33.82,183.17-33.82L785.35,416,500.25,131.07,95.5,141.59Z" transform="translate(-81.03 -124.41)"/><path class="cls-3" d="M91.25,668.66s299.24,86,379-42,174.29-32.57,174.29-32.57L756.29,408.68,483.62,137.23,101,146.59Z" transform="translate(-81.03 -124.41)"/><path class="cls-4" d="M96.11,651.39s284,82.66,359.67-40.41,165.39-31.33,165.39-31.33L727.24,401.39,467,143.39,106.55,151.6Z" transform="translate(-81.03 -124.41)"/><path class="cls-5" d="M101,634.13s268.72,79.36,340.34-38.8,156.51-30.08,156.51-30.08L698.18,394.11,450.35,149.54l-338.28,7.07Z" transform="translate(-81.03 -124.41)"/><path class="cls-6" d="M105.83,616.87s253.46,76.06,321-37.19,147.62-28.82,147.62-28.82l94.67-164L433.72,155.7,117.6,161.62Z" transform="translate(-81.03 -124.41)"/><path class="cls-7" d="M110.69,599.61S348.89,672.37,412.37,564s138.74-27.57,138.74-27.57l89-156.91-223-217.69-294,4.77Z" transform="translate(-81.03 -124.41)"/><path class="cls-8" d="M115.55,582.35s222.94,69.46,282.36-34,129.84-26.32,129.84-26.32L611,372.27,400.45,168l-271.8,3.62Z" transform="translate(-81.03 -124.41)"/><path class="cls-9" d="M120.41,565.09s207.68,66.16,263-32.35,121-25.08,121-25.08L582,365,383.81,174.17l-249.64,2.47Z" transform="translate(-81.03 -124.41)"/><path class="cls-10" d="M125.27,547.83S317.69,610.69,369,517.09,481,493.27,481,493.27L552.91,357.7,367.18,180.33,139.7,181.65Z" transform="translate(-81.03 -124.41)"/><path class="cls-11" d="M130.13,530.57s177.16,59.56,224.37-29.13,103.19-22.57,103.19-22.57l66.17-128.45L350.55,186.49l-205.33.17Z" transform="translate(-81.03 -124.41)"/><path class="cls-12" d="M135,513.3S296.89,569.57,340,485.79s94.29-21.32,94.29-21.32L494.8,343.14,333.91,192.65l-183.16-1Z" transform="translate(-81.03 -124.41)"/><path class="cls-13" d="M139.84,496s146.65,53,185.73-25.9S411,450.07,411,450.07l54.77-114.21L317.28,198.8l-161-2.12Z" transform="translate(-81.03 -124.41)"/><path class="cls-14" d="M144.7,478.78s131.39,49.67,166.4-24.28,76.52-18.82,76.52-18.82l49.07-107.11L300.65,205l-138.86-3.27Z" transform="translate(-81.03 -124.41)"/><path class="cls-15" d="M149.56,461.52s116.13,46.37,147.07-22.67,67.64-17.57,67.64-17.57l43.37-100L284,211.12,167.32,206.7Z" transform="translate(-81.03 -124.41)"/><path class="cls-16" d="M154.42,444.26s100.86,43.06,127.75-21.06,58.74-16.32,58.74-16.32L378.58,314l-111.2-96.73-94.54-5.58Z" transform="translate(-81.03 -124.41)"/><path class="cls-17" d="M159.28,427s85.6,39.76,108.42-19.45,49.86-15.07,49.86-15.07l32-85.75-98.78-83.3-72.38-6.72Z" transform="translate(-81.03 -124.41)"/></svg>