<?xml version="1.0" encoding="UTF-8" standalone="no"?>
<!DOCTYPE svg PUBLIC "-//W3C//DTD SVG 1.1//EN" "http://www.w3.org/Graphics/SVG/1.1/DTD/svg11.dtd">
<svg width="100%" height="100%" viewBox="0 0 464 367" version="1.1" xmlns="http://www.w3.org/2000/svg" xmlns:xlink="http://www.w3.org/1999/xlink" xml:space="preserve" xmlns:serif="http://www.serif.com/" style="fill-rule:evenodd;clip-rule:evenodd;">
    <g transform="matrix(1,0,0,1,-235.04,-453.09)">
        <path d="M297.651,765.548C286.873,762.479 277.655,755.447 271.847,745.862C255.235,717.882 224.584,655.645 239.537,596.373C239.538,596.369 239.539,596.364 239.54,596.36C240.873,591.147 242.343,586.213 243.95,581.56C243.951,581.558 243.951,581.556 243.952,581.554C260.454,534.027 307.772,504.46 357.81,509.67C394.02,513.44 445.94,511.4 471.81,475.53C503.731,431.255 596.811,464.531 640.015,483.241C653.95,489.353 663.779,502.18 666.056,517.225C672.36,558.678 685.406,644.91 692.645,692.751C695.659,712.677 684.872,732.133 666.374,740.13C619.557,760.373 533.28,797.677 499.058,812.474C489.656,816.539 479.138,817.227 469.287,814.422C431.886,803.772 335.812,776.414 297.651,765.548Z" style="fill:rgb(0,58,230);fill-rule:nonzero;stroke:rgb(255,0,10);stroke-width:1px;"/>
    </g>
    <g transform="matrix(1,0,0,1,-235.04,-453.09)">
        <path d="M313.865,764.174C303.032,761.099 293.773,754.02 287.964,744.373C271.946,717.27 243.286,658.411 257.48,602.29C258.74,597.31 260.15,592.593 261.71,588.14C261.71,588.14 261.71,588.14 261.71,588.139C277.51,542.72 322.86,514.46 370.81,519.44C405.52,523.04 455.26,521.1 480.05,486.82C510.383,444.871 598.317,475.767 640.169,493.723C654.177,499.802 664.074,512.66 666.364,527.759C672.399,567.329 684.528,647.276 691.443,692.862C694.47,712.81 683.661,732.29 665.132,740.278C620.236,759.634 539.571,794.41 506.733,808.568C497.352,812.612 486.864,813.296 477.037,810.506C441.015,800.278 350.689,774.63 313.865,764.174Z" style="fill:rgb(16,54,216);fill-rule:nonzero;stroke:rgb(239,4,24);stroke-width:1px;"/>
    </g>
    <g transform="matrix(1,0,0,1,-235.04,-453.09)">
        <path d="M330.057,762.783C319.155,759.699 309.846,752.562 304.036,742.835C288.638,716.626 261.984,661.15 275.379,608.245C275.38,608.238 275.382,608.232 275.384,608.225C276.583,603.481 277.942,598.996 279.38,594.75C279.42,594.632 279.461,594.515 279.502,594.397C294.735,551.284 337.994,524.493 383.73,529.23C416.93,532.67 464.51,530.81 488.22,498.12C516.962,458.487 599.787,487.044 640.245,504.23C654.326,510.272 664.292,523.154 666.603,538.302C672.373,575.928 683.623,649.667 690.225,692.942C693.273,712.918 682.443,732.431 663.879,740.412C620.958,758.866 545.879,791.145 514.465,804.651C505.107,808.674 494.651,809.356 484.849,806.583C450.221,796.785 365.541,772.824 330.057,762.783Z" style="fill:rgb(32,51,203);fill-rule:nonzero;stroke:rgb(223,7,38);stroke-width:1px;"/>
    </g>
    <g transform="matrix(1,0,0,1,-235.04,-453.09)">
        <path d="M346.313,761.4C335.348,758.307 325.993,751.116 320.183,741.316C305.405,716.027 280.688,663.877 293.36,614.11C294.51,609.59 295.8,605.32 297.22,601.27C311.65,560.06 353.04,534.42 396.82,538.94C428.5,542.21 473.92,540.45 496.55,509.34C523.699,472.024 601.41,498.253 640.444,514.649C654.618,520.654 664.665,533.579 666.988,548.797C672.46,584.457 682.789,652.121 689.035,693.034C692.088,713.032 681.232,732.564 662.637,740.531C621.716,758.062 552.074,787.897 522.095,800.74C512.762,804.739 502.339,805.416 492.566,802.659C459.385,793.299 380.384,771.012 346.313,761.4Z" style="fill:rgb(48,47,189);fill-rule:nonzero;stroke:rgb(207,11,51);stroke-width:1px;"/>
    </g>
    <g transform="matrix(1,0,0,1,-235.04,-453.09)">
        <path d="M362.539,760.009C351.501,756.905 342.093,749.65 336.285,739.763C322.159,715.428 299.388,666.62 311.29,620.001C311.29,620.001 311.29,620 311.29,620C312.39,615.71 313.62,611.66 314.97,607.82C328.71,568.72 368.14,544.39 409.82,548.67C440,551.78 483.24,550.1 504.82,520.59C530.378,485.585 602.996,509.503 640.563,525.081C654.841,531.043 664.98,544.015 667.318,559.31C672.486,592.95 681.917,654.642 687.801,693.129C690.861,713.148 679.983,732.7 661.358,740.654C622.508,757.247 558.273,784.681 529.769,796.855C520.457,800.832 510.065,801.505 500.318,798.763C468.601,789.842 395.176,769.189 362.539,760.009Z" style="fill:rgb(64,44,175);fill-rule:nonzero;stroke:rgb(191,15,65);stroke-width:1px;"/>
    </g>
    <g transform="matrix(1,0,0,1,-235.04,-453.09)">
        <path d="M378.778,758.613C367.653,755.5 358.18,748.172 352.371,738.186C338.923,714.856 318.11,669.441 329.217,625.982C329.221,625.965 329.225,625.947 329.23,625.93C330.23,621.87 331.45,618.03 332.73,614.4C345.73,577.4 383.23,554.4 422.83,558.45C451.49,561.38 492.57,559.8 513.04,531.87C537.022,499.163 604.609,520.82 640.663,535.554C655.044,541.465 665.281,554.472 667.645,569.839C672.52,601.371 681.105,657.16 686.643,693.149C689.729,713.209 678.816,732.807 660.138,740.747C623.373,756.375 564.419,781.436 537.43,792.909C528.154,796.852 517.812,797.52 508.105,794.804C477.899,786.351 409.958,767.338 378.778,758.613Z" style="fill:rgb(80,40,161);fill-rule:nonzero;stroke:rgb(175,18,79);stroke-width:1px;"/>
    </g>
    <g transform="matrix(1,0,0,1,-235.04,-453.09)">
        <path d="M395.026,757.235C383.806,754.107 374.265,746.694 368.461,736.594C355.707,714.268 336.796,672.134 347.17,631.842C347.17,631.841 347.17,631.841 347.17,631.84C348.163,628.007 349.267,624.383 350.48,620.97C362.85,586.08 398.32,564.37 435.83,568.2C462.98,570.97 501.9,569.47 521.29,543.14C543.69,512.717 606.261,532.165 640.744,546.042C655.238,551.899 665.58,564.951 667.968,580.4C672.527,609.773 680.261,659.81 685.428,693.236C688.534,713.329 677.589,732.964 658.865,740.89C624.268,755.534 570.54,778.277 545.102,789.045C535.855,792.959 525.554,793.622 515.881,790.926C487.215,782.934 424.704,765.508 395.026,757.235Z" style="fill:rgb(96,36,147);fill-rule:nonzero;stroke:rgb(159,22,93);stroke-width:1px;"/>
    </g>
    <g transform="matrix(1,0,0,1,-235.04,-453.09)">
        <path d="M411.279,755.842C399.952,752.7 390.335,745.195 384.535,734.971C372.506,713.713 355.491,674.9 365.11,637.75C366.037,634.15 367.08,630.743 368.24,627.53C368.24,627.529 368.24,627.529 368.241,627.528C379.911,594.749 413.411,574.35 448.83,577.95C474.47,580.55 511.22,579.15 529.54,554.4C550.361,526.268 607.923,543.535 640.767,556.518C655.384,562.311 665.843,575.407 668.261,590.942C672.5,618.081 679.414,662.494 684.205,693.279C687.34,713.417 676.358,733.101 657.575,741.011C625.2,754.645 576.602,775.111 552.761,785.151C543.551,789.03 533.301,789.687 523.671,787.016C496.586,779.503 439.413,763.645 411.279,755.842Z" style="fill:rgb(112,33,134);fill-rule:nonzero;stroke:rgb(143,25,106);stroke-width:1px;"/>
    </g>
    <g transform="matrix(1,0,0,1,-235.04,-453.09)">
        <path d="M427.539,754.448C416.112,751.297 406.42,743.705 400.624,733.366C389.355,713.228 374.187,677.695 383.05,643.66C383.93,640.293 384.91,637.107 385.99,634.1C396.99,603.42 428.5,584.34 461.84,587.7C485.97,590.13 520.55,588.82 537.78,565.7C557.026,539.851 609.615,554.95 640.774,566.996C655.549,572.715 666.155,585.879 668.599,601.533C672.487,626.368 678.565,665.29 682.945,693.335C686.096,713.511 675.074,733.234 656.238,741.123C626.165,753.719 582.602,771.965 560.404,781.262C551.234,785.102 541.041,785.753 531.457,783.11C505.996,776.088 454.079,761.768 427.539,754.448Z" style="fill:rgb(128,29,120);fill-rule:nonzero;stroke:rgb(128,29,120);stroke-width:1px;"/>
    </g>
    <g transform="matrix(1,0,0,1,-235.04,-453.09)">
        <path d="M443.794,753.05C432.269,749.892 422.504,742.22 416.709,731.769C406.244,712.802 392.878,680.51 400.99,649.53C401.81,646.39 402.74,643.43 403.75,640.63C414.05,612.06 443.6,594.28 474.84,597.41C497.46,599.68 529.84,598.41 546.03,576.89C563.705,553.296 611.385,566.336 640.777,577.437C655.707,583.077 666.46,596.299 668.937,612.066C672.467,634.513 677.75,668.13 681.715,693.362C684.893,713.585 673.827,733.359 654.929,741.227C627.227,752.761 588.584,768.851 568.081,777.387C558.955,781.187 548.823,781.831 539.29,779.219C515.488,772.696 468.692,759.873 443.794,753.05Z" style="fill:rgb(143,25,106);fill-rule:nonzero;stroke:rgb(112,33,134);stroke-width:1px;"/>
    </g>
    <g transform="matrix(1,0,0,1,-235.04,-453.09)">
        <path d="M460.069,751.659C448.394,748.484 438.521,740.68 432.735,730.054C423.124,712.308 411.583,683.313 418.93,655.48C419.7,652.57 420.56,649.83 421.5,647.23C431.11,620.77 458.69,604.3 487.85,607.23C508.95,609.33 539.2,608.23 554.28,588.23C570.396,566.875 613.248,577.919 640.788,588.027C655.867,593.579 666.768,606.848 669.287,622.719C672.452,642.652 676.966,671.088 680.505,693.384C683.727,713.679 672.596,733.532 653.601,741.371C628.317,751.805 594.435,765.787 575.674,773.529C566.607,777.271 556.557,777.904 547.093,775.33C525.017,769.325 483.261,757.968 460.069,751.659Z" style="fill:rgb(159,22,93);fill-rule:nonzero;stroke:rgb(96,36,147);stroke-width:1px;"/>
    </g>
    <g transform="matrix(1,0,0,1,-235.04,-453.09)">
        <path d="M476.358,750.26C464.466,747.053 454.441,739.049 448.681,728.162C439.991,711.71 430.303,686.055 436.87,661.39C437.58,658.71 438.38,656.19 439.26,653.8C448.18,629.44 473.78,614.28 500.85,616.95C520.45,618.89 548.53,617.84 562.53,599.46C577.076,580.351 615.086,589.431 640.682,598.501C655.967,603.943 667.065,617.291 669.624,633.312C672.396,650.641 676.145,674.114 679.221,693.367C682.471,713.719 671.284,733.632 652.21,741.442C629.464,750.756 600.241,762.722 583.287,769.664C574.279,773.352 564.309,773.977 554.912,771.443C534.609,765.968 497.783,756.038 476.358,750.26Z" style="fill:rgb(175,18,79);fill-rule:nonzero;stroke:rgb(80,40,161);stroke-width:1px;"/>
    </g>
    <g transform="matrix(1,0,0,1,-235.04,-453.09)">
        <path d="M492.681,748.864C480.52,745.617 470.309,737.36 464.59,726.147C456.895,711.091 449.044,688.783 454.85,667.291C454.85,667.291 454.85,667.29 454.85,667.29C455.5,664.85 456.24,662.55 457.05,660.36C465.29,638.11 488.91,624.27 513.9,626.71C531.98,628.47 557.9,627.52 570.81,610.71C583.753,593.86 616.914,601.012 640.456,608.981C656.026,614.258 667.402,627.71 670.021,643.94C672.384,658.529 675.401,677.229 677.996,693.307C681.293,713.736 670.034,733.733 650.857,741.51C630.723,749.674 605.982,759.706 590.891,765.826C581.954,769.45 572.08,770.064 562.762,767.576C544.295,762.645 512.273,754.095 492.681,748.864Z" style="fill:rgb(191,15,65);fill-rule:nonzero;stroke:rgb(64,44,175);stroke-width:1px;"/>
    </g>
    <g transform="matrix(1,0,0,1,-235.04,-453.09)">
        <path d="M509.006,747.486C496.592,744.212 486.205,735.723 480.524,724.21C473.874,710.669 467.71,691.615 472.72,673.22C473.32,671.01 474,668.92 474.72,666.95C474.725,666.938 474.729,666.925 474.734,666.913C482.287,646.785 503.934,634.271 526.81,636.48C543.38,638.08 567.14,637.21 578.97,622.01C590.337,607.412 618.637,612.704 639.952,619.507C655.88,624.57 667.612,638.152 670.306,654.647C672.225,666.354 674.537,680.513 676.623,693.283C679.975,713.809 668.625,733.91 649.318,741.641C631.928,748.605 611.549,756.765 598.418,762.023C589.568,765.567 579.813,766.167 570.596,763.735C554.038,759.367 526.684,752.15 509.006,747.486Z" style="fill:rgb(207,11,51);fill-rule:nonzero;stroke:rgb(48,47,189);stroke-width:1px;"/>
    </g>
    <g transform="matrix(1,0,0,1,-235.04,-453.09)">
        <path d="M525.453,746.075C512.501,742.714 501.756,733.688 496.21,721.51C490.843,709.684 486.533,694.15 490.689,679.113C490.689,679.112 490.69,679.111 490.69,679.11C491.23,677.11 491.85,675.26 492.52,673.49C499.38,655.49 519.06,644.23 539.86,646.21C554.92,647.64 576.51,646.87 587.27,633.21C597.046,620.839 620.608,624.423 639.525,630.008C655.844,634.82 667.976,648.537 670.759,665.322C672.192,673.968 673.824,683.811 675.366,693.111C678.787,713.75 667.332,733.975 647.873,741.655C633.326,747.396 617.097,753.802 606,758.182C597.259,761.631 587.65,762.218 578.555,759.858C563.981,756.075 541.132,750.145 525.453,746.075Z" style="fill:rgb(223,7,38);fill-rule:nonzero;stroke:rgb(32,51,203);stroke-width:1px;"/>
    </g>
    <g transform="matrix(1,0,0,1,-235.04,-453.09)">
        <path d="M542.02,744.694C528.28,741.199 517.035,731.351 511.761,718.19C507.879,708.425 505.376,696.552 508.618,685.006C508.619,685.004 508.619,685.002 508.62,685C509.12,683.26 509.67,681.6 510.28,680C516.45,664.07 534.15,654.15 552.87,655.9C566.42,657.17 585.87,656.48 595.52,644.46C603.669,634.336 622.465,636.309 638.72,640.577C655.575,645.016 668.27,658.912 671.172,676.099C672.091,681.473 673.065,687.238 674.022,692.908C677.531,713.691 665.941,734.075 646.287,741.687C634.723,746.166 622.454,750.918 613.496,754.387C604.893,757.719 595.465,758.288 586.524,756.014C574.047,752.84 555.58,748.143 542.02,744.694Z" style="fill:rgb(239,4,24);fill-rule:nonzero;stroke:rgb(16,54,216);stroke-width:1px;"/>
    </g>
    <g transform="matrix(1,0,0,1,-235.04,-453.09)">
        <path d="M558.882,743.382C541.324,739.008 528.18,724.412 525.661,706.493C524.946,701.427 525.066,696.14 526.57,690.93C527.01,689.42 527.5,687.98 528.04,686.62C533.52,672.8 549.25,664.2 565.88,665.71C577.88,666.81 595.18,666.22 603.77,655.78C610.16,648.021 623.922,648.447 636.996,651.202C654.814,654.924 668.552,669.148 671.653,687.084C671.977,688.929 672.301,690.807 672.628,692.695C676.252,713.655 664.496,734.24 644.601,741.769C636.179,744.956 627.669,748.176 620.977,750.709C612.527,753.907 603.303,754.45 594.537,752.266C584.311,749.718 570.138,746.187 558.882,743.382Z" style="fill:rgb(255,0,10);fill-rule:nonzero;stroke:rgb(0,58,230);stroke-width:1px;"/>
    </g>
</svg>
