<svg id="_5e_plan_milieu" data-name="5e plan milieu" xmlns="http://www.w3.org/2000/svg" viewBox="0 0 463.27 366.21"><defs><style>.cls-1{fill:#003ae6;stroke:#ff000a;}.cls-1,.cls-10,.cls-11,.cls-12,.cls-13,.cls-14,.cls-15,.cls-16,.cls-17,.cls-2,.cls-3,.cls-4,.cls-5,.cls-6,.cls-7,.cls-8,.cls-9{stroke-miterlimit:10;}.cls-2{fill:#1036d8;stroke:#ef0418;}.cls-3{fill:#2033cb;stroke:#df0726;}.cls-4{fill:#302fbd;stroke:#cf0b33;}.cls-5{fill:#402caf;stroke:#bf0f41;}.cls-6{fill:#5028a1;stroke:#af124f;}.cls-7{fill:#602493;stroke:#9f165d;}.cls-8{fill:#702186;stroke:#8f196a;}.cls-9{fill:#801d78;stroke:#801d78;}.cls-10{fill:#8f196a;stroke:#702186;}.cls-11{fill:#9f165d;stroke:#602493;}.cls-12{fill:#af124f;stroke:#5028a1;}.cls-13{fill:#bf0f41;stroke:#402caf;}.cls-14{fill:#cf0b33;stroke:#302fbd;}.cls-15{fill:#df0726;stroke:#2033cb;}.cls-16{fill:#ef0418;stroke:#1036d8;}.cls-17{fill:#ff000a;stroke:#003ae6;}</style></defs><title>5e_plan_milieu</title><path class="cls-1" d="M281.68,761s-62.24-85-42.14-164.64q2-7.82,4.41-14.8c16.5-47.53,63.82-77.1,113.86-71.89,36.21,3.77,88.13,1.73,114-34.14,42.12-58.42,190.72,18.18,190.72,18.18l35.23,232.85L484.52,818.76Z" transform="translate(-235.04 -453.09)"/><path class="cls-2" d="M297.86,759.63s-59.64-81.19-40.38-157.34q1.89-7.47,4.23-14.15c15.8-45.42,61.15-73.68,109.1-68.7,34.71,3.6,84.45,1.66,109.24-32.62,40.37-55.83,182.77,17.37,182.77,17.37l33.76,222.53-204.35,88.1Z" transform="translate(-235.04 -453.09)"/><path class="cls-3" d="M314,758.24s-57-77.42-38.62-150c1.2-4.75,2.56-9.24,4-13.49,15.12-43.32,58.49-70.27,104.35-65.52,33.2,3.44,80.78,1.58,104.49-31.11,38.61-53.24,174.81,16.57,174.81,16.57L695.4,726.86,500,810.87Z" transform="translate(-235.04 -453.09)"/><path class="cls-4" d="M330.22,756.86s-54.45-73.67-36.86-142.75c1.15-4.52,2.44-8.79,3.86-12.84,14.43-41.21,55.82-66.85,99.6-62.33,31.68,3.27,77.1,1.51,99.73-29.6,36.85-50.65,166.85,15.77,166.85,15.77L694.22,727,507.67,806.92Z" transform="translate(-235.04 -453.09)"/><path class="cls-5" d="M346.4,755.47S294.55,685.57,311.29,620c1.1-4.29,2.33-8.34,3.68-12.18,13.74-39.1,53.17-63.43,94.85-59.15,30.18,3.11,73.42,1.43,95-28.08,35.09-48.06,158.89,14.95,158.89,14.95L693,727.14,515.38,803Z" transform="translate(-235.04 -453.09)"/><path class="cls-6" d="M362.58,754.08S313.33,688,329.23,625.93c1-4.06,2.22-7.9,3.5-11.53,13-37,50.5-60,90.1-55.95,28.66,2.93,69.74,1.35,90.21-26.58C546.38,486.4,664,546,664,546l27.89,181.25L523.1,799Z" transform="translate(-235.04 -453.09)"/><path class="cls-7" d="M378.76,752.7s-46.65-62.37-31.59-120.86q1.49-5.75,3.31-10.87c12.37-34.89,47.84-56.6,85.35-52.77,27.15,2.77,66.07,1.27,85.46-25.06,31.58-42.89,143,13.34,143,13.34l26.42,170.93L530.82,795.09Z" transform="translate(-235.04 -453.09)"/><path class="cls-8" d="M394.94,751.31s-44.06-58.6-29.83-113.56q1.39-5.4,3.13-10.22c11.67-32.78,45.17-53.18,80.59-49.58,25.64,2.6,62.39,1.2,80.71-23.55,29.82-40.29,135,12.54,135,12.54l25,160.61-151,63.59Z" transform="translate(-235.04 -453.09)"/><path class="cls-9" d="M411.12,749.92s-41.46-54.84-28.07-106.26q1.32-5.05,2.94-9.56c11-30.68,42.51-49.76,75.85-46.4,24.13,2.43,58.71,1.12,75.94-22C565.85,528,664.84,577.4,664.84,577.4l23.47,150.29-142.06,59.5Z" transform="translate(-235.04 -453.09)"/><path class="cls-10" d="M427.3,748.53s-38.86-51.07-26.31-99c.82-3.14,1.75-6.1,2.76-8.9,10.3-28.57,39.85-46.35,71.09-43.22,22.62,2.27,55,1,71.19-20.52,26.31-35.12,119.1,10.93,119.1,10.93l22,140L554,783.25Z" transform="translate(-235.04 -453.09)"/><path class="cls-11" d="M443.49,747.15s-36.27-47.31-24.56-91.67c.77-2.91,1.63-5.65,2.57-8.25,9.61-26.46,37.19-42.93,66.35-40,21.1,2.1,51.35,1,66.43-19,24.55-32.53,111.14,10.12,111.14,10.12L686,728,561.69,779.3Z" transform="translate(-235.04 -453.09)"/><path class="cls-12" d="M459.67,745.76s-33.67-43.54-22.8-84.37c.71-2.68,1.51-5.2,2.39-7.59,8.92-24.36,34.52-39.52,61.59-36.85,19.6,1.94,47.68.89,61.68-17.49,22.79-29.94,103.18,9.32,103.18,9.32l19.06,119.33L569.4,775.35Z" transform="translate(-235.04 -453.09)"/><path class="cls-13" d="M475.85,744.37s-31.08-39.77-21-77.08c.65-2.44,1.39-4.74,2.2-6.93,8.24-22.25,31.86-36.09,56.85-33.65,18.08,1.76,44,.81,56.91-16,21-27.34,95.23,8.51,95.23,8.51l17.59,109L577.12,771.41Z" transform="translate(-235.04 -453.09)"/><path class="cls-14" d="M492,743s-28.48-36-19.28-69.78c.6-2.21,1.28-4.3,2-6.27,7.54-20.15,29.2-32.68,52.09-30.47,16.57,1.6,40.33.73,52.16-14.47,19.28-24.76,87.27,7.7,87.27,7.7l16.12,98.7-97.57,39.07Z" transform="translate(-235.04 -453.09)"/><path class="cls-15" d="M508.21,741.6s-25.88-32.25-17.52-62.49c.54-2,1.16-3.85,1.83-5.62,6.86-18,26.54-29.26,47.34-27.28,15.06,1.43,36.65.66,47.41-13,17.52-22.17,79.31,6.9,79.31,6.9l14.65,88.38-88.68,35Z" transform="translate(-235.04 -453.09)"/><path class="cls-16" d="M524.39,740.21S501.11,711.73,508.62,685c.5-1.74,1.05-3.4,1.66-5,6.17-15.93,23.87-25.85,42.59-24.1,13.55,1.27,33,.58,42.65-11.44,15.76-19.58,71.35,6.09,71.35,6.09l13.18,78.06-79.78,30.9Z" transform="translate(-235.04 -453.09)"/><path class="cls-17" d="M540.57,738.82s-20.69-24.71-14-47.89c.44-1.51.93-2.95,1.47-4.31,5.48-13.82,21.21-22.42,37.84-20.91,12,1.1,29.3.51,37.89-9.93,14-17,63.39,5.29,63.39,5.29l11.71,67.73L608,755.62Z" transform="translate(-235.04 -453.09)"/></svg>