<svg id="_5e_plan_gauche" data-name="5e plan gauche" xmlns="http://www.w3.org/2000/svg" viewBox="0 0 817.3 746.22"><defs><style>.cls-1{fill:#003ae6;stroke:#ff000a;}.cls-1,.cls-10,.cls-11,.cls-12,.cls-13,.cls-14,.cls-15,.cls-16,.cls-17,.cls-2,.cls-3,.cls-4,.cls-5,.cls-6,.cls-7,.cls-8,.cls-9{stroke-miterlimit:10;}.cls-2{fill:#1036d8;stroke:#ef0418;}.cls-3{fill:#2033cb;stroke:#df0726;}.cls-4{fill:#302fbd;stroke:#cf0b33;}.cls-5{fill:#402caf;stroke:#bf0f41;}.cls-6{fill:#5028a1;stroke:#af124f;}.cls-7{fill:#602493;stroke:#9f165d;}.cls-8{fill:#702186;stroke:#8f196a;}.cls-9{fill:#801d78;stroke:#801d78;}.cls-10{fill:#8f196a;stroke:#702186;}.cls-11{fill:#9f165d;stroke:#602493;}.cls-12{fill:#af124f;stroke:#5028a1;}.cls-13{fill:#bf0f41;stroke:#402caf;}.cls-14{fill:#cf0b33;stroke:#302fbd;}.cls-15{fill:#df0726;stroke:#2033cb;}.cls-16{fill:#ef0418;stroke:#1036d8;}.cls-17{fill:#ff000a;stroke:#003ae6;}</style></defs><title>5e_plan_gauche</title><path class="cls-1" d="M12.84,961.32,130.6,233.72S278.52,272.3,298.74,387.06,373.57,515.76,439.61,512,696.08,704.69,818,871.21,12.84,961.32,12.84,961.32Z" transform="translate(-12.26 -233.1)"/><path class="cls-2" d="M20.33,935.81,131.89,247.49S272.11,284.08,291.24,393s70.9,122.17,133.5,118.55,242.38,181.5,357.91,339.57S20.33,935.81,20.33,935.81Z" transform="translate(-12.26 -233.1)"/><path class="cls-3" d="M27.83,910.31l105.36-649S265.69,295.86,283.74,399s67,115.65,126.14,112.2S638.16,681.48,747.3,831.09,27.83,910.31,27.83,910.31Z" transform="translate(-12.26 -233.1)"/><path class="cls-4" d="M35.32,884.8,134.48,275S259.28,307.63,276.24,405,339.28,514.08,395,510.8,609.2,669.88,711.94,811,35.32,884.8,35.32,884.8Z" transform="translate(-12.26 -233.1)"/><path class="cls-5" d="M42.82,859.29l93-570.49s117.09,30.61,133,122.13,59.11,102.58,111.4,99.48S580.23,658.27,676.59,791,42.82,859.29,42.82,859.29Z" transform="translate(-12.26 -233.1)"/><path class="cls-6" d="M50.31,833.78l86.75-531.21S246.44,331.19,261.24,416.9,316.42,513,365.28,510s186,136.65,276,260.9S50.31,833.78,50.31,833.78Z" transform="translate(-12.26 -233.1)"/><path class="cls-7" d="M57.81,808.27l80.55-491.93S240,343,253.74,422.86s51.25,89.53,96.67,86.77,171.9,125.44,255.47,241.23S57.81,808.27,57.81,808.27Z" transform="translate(-12.26 -233.1)"/><path class="cls-8" d="M65.3,782.77l74.35-452.66s94,24.63,106.59,98.72,47.32,83,89.31,80.41,157.8,114.22,235,221.56S65.3,782.77,65.3,782.77Z" transform="translate(-12.26 -233.1)"/><path class="cls-9" d="M72.8,757.26l68.14-413.38s86.26,22.64,97.8,90.92,43.39,76.46,81.94,74.05,143.71,103,214.49,201.89S72.8,757.26,72.8,757.26Z" transform="translate(-12.26 -233.1)"/><path class="cls-10" d="M80.3,731.75l61.93-374.1s78.55,20.64,89,83.12,39.45,69.93,74.57,67.69,129.61,91.8,194,182.22S80.3,731.75,80.3,731.75Z" transform="translate(-12.26 -233.1)"/><path class="cls-11" d="M87.79,706.24l55.74-334.82s70.83,18.65,80.21,75.31,35.52,63.41,67.21,61.35,115.51,80.57,173.52,162.54S87.79,706.24,87.79,706.24Z" transform="translate(-12.26 -233.1)"/><path class="cls-12" d="M95.29,680.73l49.53-295.54S208,401.85,216.24,452.7s31.59,56.87,59.84,55,101.42,69.36,153,142.87S95.29,680.73,95.29,680.73Z" transform="translate(-12.26 -233.1)"/><path class="cls-13" d="M102.78,655.22,146.11,399s55.42,14.67,62.63,59.71S236.4,509,261.21,507.3s87.33,58.15,132.55,123.2S102.78,655.22,102.78,655.22Z" transform="translate(-12.26 -233.1)"/><path class="cls-14" d="M110.28,629.72l37.12-217s47.72,12.67,53.83,51.91,23.74,43.81,45.12,42.27,73.23,46.93,112.06,103.53S110.28,629.72,110.28,629.72Z" transform="translate(-12.26 -233.1)"/><path class="cls-15" d="M117.77,604.21,148.7,426.5s40,10.68,45,44.11,19.81,37.28,37.75,35.91,59.13,35.72,91.57,83.86S117.77,604.21,117.77,604.21Z" transform="translate(-12.26 -233.1)"/><path class="cls-16" d="M125.27,578.7,150,440.27s32.29,8.69,36.24,36.3,15.88,30.75,30.38,29.56,45,24.51,71.09,64.19S125.27,578.7,125.27,578.7Z" transform="translate(-12.26 -233.1)"/><path class="cls-17" d="M132.76,553.19,151.28,454s24.59,6.69,27.45,28.5,12,24.22,23,23.2,30.94,13.29,50.6,44.52S132.76,553.19,132.76,553.19Z" transform="translate(-12.26 -233.1)"/></svg>