<?xml version="1.0" encoding="UTF-8" standalone="no"?>
<!DOCTYPE svg PUBLIC "-//W3C//DTD SVG 1.1//EN" "http://www.w3.org/Graphics/SVG/1.1/DTD/svg11.dtd">
<svg width="100%" height="100%" viewBox="0 0 804 922" version="1.1" xmlns="http://www.w3.org/2000/svg" xmlns:xlink="http://www.w3.org/1999/xlink" xml:space="preserve" xmlns:serif="http://www.serif.com/" style="fill-rule:evenodd;clip-rule:evenodd;">
    <g transform="matrix(1,0,0,1,-32.47,-159.06)">
        <path d="M611.477,1065.88C647.117,1073.99 683.232,1054.35 695.804,1020.03C717.895,958.21 752.718,855.374 782.11,743.77C829.37,564.32 862.6,362.23 806.47,271.6C750.34,180.97 586,159 435.72,159.57C343.636,159.919 256.812,168.814 203.376,175.651C171.335,179.817 145.897,204.647 140.957,236.579C124.972,339.893 91.236,557.97 91.1,558.847C91.1,558.849 91.1,558.851 91.1,558.853C90.97,559.693 60.026,759.621 43.357,867.323C37.523,905.016 61.835,940.802 99.025,949.265C192.671,970.575 352.868,1007.03 353.259,1007.12C353.26,1007.12 353.26,1007.12 353.261,1007.12C353.657,1007.21 518.459,1044.71 611.477,1065.88Z" style="fill:rgb(255,0,10);fill-rule:nonzero;stroke:rgb(0,58,230);stroke-width:1px;"/>
    </g>
    <g transform="matrix(1,0,0,1,-32.47,-159.06)">
        <path d="M145.383,260.577C150.118,228.93 175.003,204.109 206.662,199.456C257.661,192.084 339.378,182.482 426.05,181.18C569.217,179.03 725.473,199.799 780.046,290.174C780.049,290.178 780.051,290.182 780.054,290.186C832.799,377.499 802.099,568.594 757.46,738.52C757.459,738.522 757.459,738.524 757.458,738.527C712.869,908.194 654.87,1056.52 654.19,1057.64C653.51,1058.76 352.43,991.51 351.57,992.4C349.644,994.361 201.313,962.361 111.862,942.846C74.488,934.692 49.842,898.951 55.505,861.119C71.069,757.153 99.23,569.03 99.35,568.233C99.35,568.231 99.35,568.229 99.35,568.227C99.476,567.39 130.464,360.281 145.383,260.577Z" style="fill:rgb(239,4,24);fill-rule:nonzero;stroke:rgb(16,54,216);stroke-width:1px;"/>
    </g>
    <g transform="matrix(1,0,0,1,-32.47,-159.06)">
        <path d="M149.836,284.487C154.358,253.17 178.631,228.384 209.846,223.206C258.366,215.29 335.039,205 416.39,202.8C552.48,199.12 700.64,218.6 753.62,308.66C753.62,308.66 753.62,308.66 753.62,308.66C803.019,392.659 774.811,572.755 732.792,733.174C732.79,733.179 732.789,733.184 732.788,733.189C690.868,893.085 636.17,1032.87 634.79,1035.18C633.41,1037.49 351.53,975.8 349.79,977.57C346.006,981.444 209.688,953.898 124.667,936.263C87.076,928.466 62.042,892.762 67.524,854.764C81.955,754.728 107.357,578.638 107.519,577.515C107.52,577.512 107.52,577.508 107.521,577.505C107.692,576.321 135.987,380.388 149.836,284.487Z" style="fill:rgb(223,7,38);fill-rule:nonzero;stroke:rgb(32,51,203);stroke-width:1px;"/>
    </g>
    <g transform="matrix(1,0,0,1,-32.47,-159.06)">
        <path d="M154.331,308.343C158.615,277.376 182.231,252.622 212.962,246.887C258.984,238.437 330.679,227.503 406.73,224.46C535.67,219.3 675.82,237.46 727.2,327.23C727.2,327.23 727.2,327.23 727.2,327.23C773.299,407.808 747.531,577.012 708.133,727.92C708.131,727.927 708.129,727.934 708.127,727.941C668.888,878.056 617.48,1009.35 615.43,1012.84C613.38,1016.33 350.68,960.21 348.07,962.84C342.507,968.538 218.109,945.384 137.676,929.698C99.826,922.317 74.34,886.647 79.623,848.447C92.939,752.168 115.728,587.39 115.8,586.871C115.8,586.87 115.8,586.87 115.8,586.869C115.876,586.318 141.561,400.654 154.331,308.343Z" style="fill:rgb(207,11,51);fill-rule:nonzero;stroke:rgb(48,47,189);stroke-width:1px;"/>
    </g>
    <g transform="matrix(1,0,0,1,-32.47,-159.06)">
        <path d="M158.839,332.098C162.87,301.535 185.753,276.845 215.923,270.507C259.409,261.513 326.203,249.932 397.06,246C518.877,239.24 651.053,256.089 700.776,345.673C700.779,345.677 700.781,345.682 700.783,345.686C743.627,422.845 720.251,581.163 683.474,722.536C683.471,722.545 683.469,722.553 683.467,722.562C646.897,862.917 598.78,985.71 596.06,990.36C593.34,995.01 349.81,944.49 346.33,948.04C339.067,955.482 226.423,936.627 150.734,922.96C112.583,916.065 86.57,880.427 91.632,841.991C103.749,749.985 123.836,597.456 123.999,596.218C124,596.213 124,596.207 124.001,596.202C124.176,594.877 147.193,420.388 158.839,332.098Z" style="fill:rgb(191,15,65);fill-rule:nonzero;stroke:rgb(64,44,175);stroke-width:1px;"/>
    </g>
    <g transform="matrix(1,0,0,1,-32.47,-159.06)">
        <path d="M163.391,355.762C167.148,325.639 189.241,301.029 218.785,294.055C259.707,284.54 321.665,272.374 387.4,267.64C502.099,259.38 626.238,274.82 674.399,364.228C674.4,364.23 674.401,364.231 674.402,364.233C713.997,437.92 693.002,585.385 658.816,717.248C658.814,717.255 658.812,717.263 658.81,717.27C624.91,847.85 580.09,962.16 576.69,968C573.29,973.84 348.93,928.88 344.59,933.32C335.731,942.379 234.669,927.716 163.9,916.14C125.388,909.821 98.751,874.201 103.578,835.474C114.535,747.543 132.114,606.483 132.229,605.555C132.23,605.552 132.23,605.548 132.231,605.545C132.356,604.543 152.851,440.252 163.391,355.762Z" style="fill:rgb(175,18,79);fill-rule:nonzero;stroke:rgb(80,40,161);stroke-width:1px;"/>
    </g>
    <g transform="matrix(1,0,0,1,-32.47,-159.06)">
        <path d="M167.978,379.317C171.433,349.69 192.647,325.187 221.474,317.526C259.805,307.488 317.021,294.752 377.74,289.25C485.33,279.5 601.5,293.49 647.94,382.75C647.94,382.75 647.94,382.75 647.94,382.75C684.447,452.935 665.693,589.59 634.157,711.943C634.153,711.96 634.148,711.978 634.144,711.995C602.914,832.785 561.4,938.59 557.31,945.57C553.22,952.55 348.06,913.2 342.85,918.57C332.519,929.145 242.946,918.573 177.343,909.178C138.389,903.568 110.988,867.956 115.547,828.865C125.321,745.043 140.463,615.211 140.5,614.891C140.5,614.89 140.5,614.89 140.5,614.889C140.541,614.54 158.564,460.027 167.978,379.317Z" style="fill:rgb(159,22,93);fill-rule:nonzero;stroke:rgb(96,36,147);stroke-width:1px;"/>
    </g>
    <g transform="matrix(1,0,0,1,-32.47,-159.06)">
        <path d="M172.609,402.769C175.738,373.69 196.002,349.324 224.022,340.946C259.741,330.412 312.299,317.152 368.08,310.86C468.53,299.53 576.8,312.14 621.52,401.27C621.52,401.27 621.52,401.27 621.52,401.27C654.946,467.911 638.404,593.786 609.532,706.615C609.524,706.644 609.517,706.673 609.509,706.702C580.96,817.684 542.739,915.011 537.97,923.16C533.2,931.31 347.22,897.55 341.14,903.77C329.51,915.671 251.251,909.029 191.067,901.898C151.555,897.182 123.194,861.553 127.459,821.99C135.981,742.867 148.67,625.159 148.769,624.235C148.77,624.232 148.77,624.228 148.771,624.225C148.881,623.203 164.371,479.298 172.609,402.769Z" style="fill:rgb(143,25,106);fill-rule:nonzero;stroke:rgb(112,33,134);stroke-width:1px;"/>
    </g>
    <g transform="matrix(1,0,0,1,-32.47,-159.06)">
        <path d="M177.269,426.054C180.047,397.61 199.245,373.438 226.321,364.292C259.402,353.265 307.417,339.499 358.41,332.48C451.759,319.63 552.148,330.74 595.089,419.798C595.09,419.799 595.09,419.8 595.091,419.801C625.496,482.854 611.093,598.004 584.839,701.324C584.834,701.346 584.828,701.368 584.823,701.389C558.993,802.637 523.999,891.441 518.57,900.76C513.14,910.08 346.32,881.9 339.37,889C326.668,902.008 259.591,899.109 205.159,894.335C185.85,892.634 168.021,883.283 155.643,868.366C143.265,853.448 137.364,834.201 139.253,814.909C146.518,740.581 156.883,634.766 156.999,633.58C157,633.573 157,633.567 157.001,633.56C157.131,632.225 170.201,498.416 177.269,426.054Z" style="fill:rgb(128,29,120);fill-rule:nonzero;stroke:rgb(128,29,120);stroke-width:1px;"/>
    </g>
    <g transform="matrix(1,0,0,1,-32.47,-159.06)">
        <path d="M181.976,449.157C184.376,421.446 202.388,397.537 228.362,387.587C258.797,376.072 302.407,361.813 348.76,354.09C435.01,339.72 527.58,349.31 568.68,438.32C596.125,497.758 583.855,602.199 560.194,696.005C560.186,696.038 560.177,696.07 560.169,696.103C536.96,787.575 505.329,867.872 499.18,878.35C493.03,888.83 345.43,866.24 337.62,874.24C324.138,888.043 268.118,888.629 219.881,886.299C200.151,885.367 181.653,876.438 168.651,861.571C155.648,846.703 149.264,827.18 150.969,807.503C156.965,737.928 165.146,643.528 165.2,642.913C165.2,642.911 165.2,642.909 165.2,642.907C165.261,642.2 176.055,517.543 181.976,449.157Z" style="fill:rgb(112,33,134);fill-rule:nonzero;stroke:rgb(143,25,106);stroke-width:1px;"/>
    </g>
    <g transform="matrix(1,0,0,1,-32.47,-159.06)">
        <path d="M186.725,472.067C188.714,445.195 205.413,421.632 230.108,410.852C257.899,398.861 297.246,384.117 339.09,375.7C418.178,359.79 503.086,367.83 542.247,456.834C542.248,456.836 542.25,456.839 542.251,456.842C566.804,512.629 556.565,606.407 535.525,690.701C535.517,690.733 535.509,690.764 535.501,690.795C514.992,772.491 486.629,844.302 479.82,855.94C473.01,867.58 344.57,850.59 335.89,859.47C322.071,873.621 276.995,877.314 235.552,877.486C215.273,877.65 195.85,869.323 181.988,854.52C168.126,839.718 161.088,819.791 162.581,799.567C167.252,735.432 173.321,653.189 173.389,652.258C173.39,652.253 173.39,652.247 173.391,652.242C173.472,651.14 181.984,536.137 186.725,472.067Z" style="fill:rgb(96,36,147);fill-rule:nonzero;stroke:rgb(159,22,93);stroke-width:1px;"/>
    </g>
    <g transform="matrix(1,0,0,1,-32.47,-159.06)">
        <path d="M191.527,494.784C193.057,468.873 208.296,445.749 231.502,434.122C256.649,421.659 291.883,406.428 329.42,397.32C401.42,379.85 478.67,386.32 515.83,475.37C515.83,475.37 515.83,475.37 515.83,475.37C537.57,527.48 529.28,610.67 510.83,685.45C510.828,685.458 510.826,685.466 510.824,685.475C492.994,757.414 467.939,820.731 460.44,833.54C452.94,846.35 343.7,834.93 334.15,844.71C320.66,858.526 286.48,864.728 252.731,867.359C231.741,869.155 211.006,861.74 195.915,847.041C180.824,832.341 172.867,811.809 174.11,790.779C177.49,732.26 181.647,661.973 181.67,661.582C181.67,661.581 181.67,661.579 181.67,661.578C181.699,661.096 187.982,554.761 191.527,494.784Z" style="fill:rgb(80,40,161);fill-rule:nonzero;stroke:rgb(175,18,79);stroke-width:1px;"/>
    </g>
    <g transform="matrix(1,0,0,1,-32.47,-159.06)">
        <path d="M196.411,517.201C197.453,492.434 211.053,469.908 232.485,457.451C255.013,444.492 286.346,428.71 319.8,418.93C384.688,399.96 454.457,404.72 489.447,493.924C489.449,493.927 489.45,493.931 489.452,493.935C508.438,542.316 502.047,614.845 486.268,680.072C486.255,680.13 486.241,680.188 486.226,680.245C471.027,742.392 449.288,797.194 441.11,811.19C432.93,825.19 342.87,819.34 332.45,830C320.329,842.415 296.798,850.089 271.874,854.83C250.051,859.108 227.471,853.149 210.602,838.66C193.732,824.17 184.433,802.749 185.368,780.53C187.514,728.609 189.933,671.156 189.94,670.98L196.411,517.201Z" style="fill:rgb(64,44,175);fill-rule:nonzero;stroke:rgb(191,15,65);stroke-width:1px;"/>
    </g>
    <g transform="matrix(1,0,0,1,-32.47,-159.06)">
        <path d="M201.234,539.365C201.743,515.934 213.525,494.188 232.876,480.965C252.827,467.468 280.483,451.027 310.1,440.54C367.88,420.08 430.34,423.08 463,512.41C463,512.41 463,512.41 463,512.41C479.302,557.03 474.74,618.95 461.595,674.662C461.578,674.73 461.562,674.799 461.546,674.867C449.016,727.26 430.549,773.592 421.71,788.72C412.87,803.85 341.96,803.63 330.71,815.18C322.097,823.996 309.721,830.956 295.894,836.444C273.254,845.521 247.569,842.626 227.518,828.737C207.467,814.848 195.727,791.821 196.266,767.435C197.201,724.125 198.151,681.106 198.17,680.272C198.17,680.264 198.17,680.256 198.17,680.248C198.196,679.048 200.123,590.422 201.234,539.365Z" style="fill:rgb(48,47,189);fill-rule:nonzero;stroke:rgb(207,11,51);stroke-width:1px;"/>
    </g>
    <g transform="matrix(1,0,0,1,-32.47,-159.06)">
        <path d="M206.146,561.21C206.108,539.369 215.899,518.67 232.808,504.846C250.207,490.758 274.399,473.477 300.43,462.16C351.079,440.14 406.499,441.38 436.559,530.936C436.56,530.939 436.56,530.941 436.561,530.943C450.281,571.808 447.447,623.164 436.922,669.364C436.908,669.426 436.894,669.488 436.88,669.55C427.02,712.17 411.88,750.02 402.32,766.32C392.76,782.62 341.08,788 328.93,800.41C328.929,800.411 328.927,800.413 328.926,800.414C308.657,821.16 277.851,827.581 250.982,816.66C224.113,805.739 206.521,779.648 206.473,750.644C206.418,718.001 206.37,689.883 206.37,689.592C206.37,689.591 206.37,689.589 206.37,689.588C206.369,689.093 206.228,608.038 206.146,561.21Z" style="fill:rgb(32,51,203);fill-rule:nonzero;stroke:rgb(223,7,38);stroke-width:1px;"/>
    </g>
    <g transform="matrix(1,0,0,1,-32.47,-159.06)">
        <path d="M211.039,582.778C210.433,562.8 218.086,543.455 232.195,529.298C247.081,514.508 268.045,496.067 290.77,483.77C334.308,460.211 382.996,459.6 410.137,549.449C410.139,549.456 410.141,549.464 410.143,549.472C421.354,586.543 420.145,627.276 412.275,663.986C412.256,664.07 412.238,664.155 412.219,664.24C405,697.1 393.17,726.45 383,743.91C372.83,761.37 340.26,772.32 327.24,785.65C327.24,785.65 327.239,785.651 327.239,785.651C309.028,804.267 281.46,810.206 257.199,800.742C232.938,791.278 216.675,768.239 215.88,742.209C215.148,718.218 214.573,699.375 214.56,698.947C214.56,698.942 214.56,698.938 214.56,698.933C214.534,698.086 212.32,625.026 211.039,582.778Z" style="fill:rgb(16,54,216);fill-rule:nonzero;stroke:rgb(239,4,24);stroke-width:1px;"/>
    </g>
    <g transform="matrix(1,0,0,1,-32.47,-159.06)">
        <path d="M215.944,604.147C214.76,586.276 220.22,568.597 231.276,554.507C243.64,538.909 261.513,518.88 281.11,505.38C317.53,480.29 359.9,477.76 383.72,568C407.54,658.24 369.47,725.84 325.45,770.9C325.449,770.901 325.449,770.901 325.448,770.902C309.202,787.531 284.696,793.052 262.888,784.997C241.081,776.941 226.049,756.815 224.515,733.618C223.536,718.83 222.852,708.483 222.84,708.302C222.84,708.301 222.84,708.299 222.84,708.298C222.81,707.839 218.451,642.008 215.944,604.147Z" style="fill:rgb(0,58,230);fill-rule:nonzero;stroke:rgb(255,0,10);stroke-width:1px;"/>
    </g>
</svg>
