<svg id="fond" xmlns="http://www.w3.org/2000/svg" viewBox="0 0 803.92 921.54"><defs><style>.cls-1{fill:#ff000a;stroke:#003ae6;}.cls-1,.cls-10,.cls-11,.cls-12,.cls-13,.cls-14,.cls-15,.cls-16,.cls-17,.cls-2,.cls-3,.cls-4,.cls-5,.cls-6,.cls-7,.cls-8,.cls-9{stroke-miterlimit:10;}.cls-2{fill:#ef0418;stroke:#1036d8;}.cls-3{fill:#df0726;stroke:#2033cb;}.cls-4{fill:#cf0b33;stroke:#302fbd;}.cls-5{fill:#bf0f41;stroke:#402caf;}.cls-6{fill:#af124f;stroke:#5028a1;}.cls-7{fill:#9f165d;stroke:#602493;}.cls-8{fill:#8f196a;stroke:#702186;}.cls-9{fill:#801d78;stroke:#801d78;}.cls-10{fill:#702186;stroke:#8f196a;}.cls-11{fill:#602493;stroke:#9f165d;}.cls-12{fill:#5028a1;stroke:#af124f;}.cls-13{fill:#402caf;stroke:#bf0f41;}.cls-14{fill:#302fbd;stroke:#cf0b33;}.cls-15{fill:#2033cb;stroke:#df0726;}.cls-16{fill:#1036d8;stroke:#ef0418;}.cls-17{fill:#003ae6;stroke:#ff000a;}</style></defs><title>fond</title><path class="cls-1" d="M673.55,1080s61.3-156.78,108.56-336.23,80.49-381.54,24.36-472.17S586,159,435.72,159.57s-286.55,23.9-286.55,23.9L91.1,558.85,33,934.24l320.26,72.88Z" transform="translate(-32.47 -159.06)"/><path class="cls-2" d="M153.23,208.13s129.65-24.8,272.82-26.95,299.43,18.62,354,109c52.75,87.31,22.05,278.41-22.59,448.34-44.59,169.67-102.59,318-103.27,319.12s-301.76-66.13-302.62-65.24c-2.76,2.81-306.12-64.11-306.12-64.11l53.9-360.06Z" transform="translate(-32.47 -159.06)"/><path class="cls-3" d="M157.3,232.8s123-26.32,259.09-30,284.25,15.8,337.23,105.86c49.4,84,21.19,264.1-20.83,424.52-41.92,159.9-96.62,299.69-98,302s-283.26-59.38-285-57.61c-5.51,5.64-292-55.33-292-55.33l49.73-344.73Z" transform="translate(-32.47 -159.06)"/><path class="cls-4" d="M161.37,257.46s116.42-27.84,245.36-33,269.09,13,320.47,102.77c46.1,80.58,20.33,249.79-19.07,400.7-39.24,150.12-90.65,281.42-92.7,284.91s-264.75-52.63-267.36-50c-8.25,8.45-277.83-46.55-277.83-46.55L115.8,586.87Z" transform="translate(-32.47 -159.06)"/><path class="cls-5" d="M165.43,282.13S275.24,252.76,397.06,246s254,10.09,303.72,99.68c42.85,77.16,19.47,235.49-17.31,376.87-36.57,140.36-84.69,263.16-87.41,267.81s-246.25-45.87-249.73-42.32c-11,11.27-263.69-37.77-263.69-37.77L124,596.21Z" transform="translate(-32.47 -159.06)"/><path class="cls-6" d="M169.5,306.79s103.2-30.89,217.9-39.15,238.84,7.18,287,96.59C714,437.92,693,585.4,658.81,717.27,624.91,847.85,580.09,962.16,576.69,968s-227.76-39.12-232.1-34.68C330.84,947.38,95,904.3,95,904.3l37.23-298.75Z" transform="translate(-32.47 -159.06)"/><path class="cls-7" d="M173.56,331.46S270.15,299,377.74,289.25s223.76,4.24,270.2,93.5c36.51,70.19,17.75,206.86-13.79,329.22-31.23,120.8-72.75,226.62-76.84,233.6s-209.25-32.37-214.46-27c-16.51,16.9-235.41-20.21-235.41-20.21L140.5,614.89Z" transform="translate(-32.47 -159.06)"/><path class="cls-8" d="M177.63,356.12s90-33.93,190.45-45.26,208.72,1.28,253.44,90.41c33.43,66.65,16.88,192.55-12,305.39-28.55,111-66.78,208.35-71.55,216.5s-190.75-25.61-196.83-19.39c-19.26,19.71-221.27-11.44-221.27-11.44l28.9-268.1Z" transform="translate(-32.47 -159.06)"/><path class="cls-9" d="M181.69,380.79s83.37-35.46,176.72-48.31,193.74-1.74,236.68,87.32c30.41,63.06,16,178.23-10.26,281.56C559,802.62,524,891.44,518.57,900.76S346.32,881.9,339.37,889c-22,22.53-207.13-2.66-207.13-2.66L157,633.57Z" transform="translate(-32.47 -159.06)"/><path class="cls-10" d="M185.76,405.46s76.75-37,163-51.37,178.82-4.78,219.92,84.23c27.45,59.45,15.17,163.92-8.5,257.74-23.21,91.49-54.85,171.81-61,182.29s-153.75-12.11-161.56-4.11c-24.76,25.35-193,6.12-193,6.12L165.2,642.91Z" transform="translate(-32.47 -159.06)"/><path class="cls-11" d="M189.83,430.12S260,391.61,339.09,375.7s164-7.87,203.16,81.14c24.56,55.8,14.31,149.61-6.74,233.92C515,772.47,486.63,844.3,479.82,855.94s-135.25-5.35-143.93,3.53C308.38,887.64,157,874.37,157,874.37l16.39-222.12Z" transform="translate(-32.47 -159.06)"/><path class="cls-12" d="M193.89,454.79s63.53-40,135.53-57.47,149.25-11,186.41,78.05c21.74,52.11,13.45,135.3-5,210.08C493,757.4,467.94,820.73,460.44,833.54s-116.74,1.39-126.29,11.17c-30.27,31-164.71,23.67-164.71,23.67l12.23-206.8Z" transform="translate(-32.47 -159.06)"/><path class="cls-13" d="M198,479.45s56.91-41.55,121.8-60.52,134.66-14.21,169.65,75c19,48.41,12.59,121-3.21,186.26-15.2,62.17-36.95,117-45.13,131s-98.24,8.15-108.66,18.81c-33,33.8-150.57,32.46-150.57,32.46l8.06-191.48Z" transform="translate(-32.47 -159.06)"/><path class="cls-14" d="M202,504.12S252.32,461,310.1,440.54,430.34,423.08,463,512.41c16.32,44.67,11.73,106.68-1.45,162.44-12.53,52.4-31,98.74-39.84,113.87s-79.75,14.91-91,26.46c-35.77,36.61-136.43,41.23-136.43,41.23l3.89-176.15Z" transform="translate(-32.47 -159.06)"/><path class="cls-15" d="M206.09,528.78s43.69-44.6,94.34-66.62,106.07-20.78,136.13,68.78c13.74,40.92,10.88,92.36.32,138.61-9.86,42.62-25,80.47-34.56,96.77S341.08,788,328.93,800.41c-38.52,39.43-122.29,50-122.29,50l-.27-160.82Z" transform="translate(-32.47 -159.06)"/><path class="cls-16" d="M210.15,553.45s37.08-46.12,80.62-69.68S383,459.6,410.14,549.46c11.24,37.16,10,78,2.08,114.78C405,697.1,393.17,726.45,383,743.91s-42.74,28.41-55.76,41.74C285.92,827.89,219,844.44,219,844.44l-4.44-145.5Z" transform="translate(-32.47 -159.06)"/><path class="cls-17" d="M214.22,578.11s30.47-47.64,66.89-72.73S359.9,477.76,383.72,568s-14.25,157.84-58.27,202.9-94,67.57-94,67.57l-8.61-130.17Z" transform="translate(-32.47 -159.06)"/></svg>