<svg id="_1er_plan_haut_gauche" data-name="1er plan haut gauche" xmlns="http://www.w3.org/2000/svg" viewBox="0 0 685.15 687.62"><defs><style>.cls-1{fill:#ff000a;stroke:#003ae6;}.cls-1,.cls-10,.cls-11,.cls-12,.cls-13,.cls-14,.cls-15,.cls-16,.cls-17,.cls-2,.cls-3,.cls-4,.cls-5,.cls-6,.cls-7,.cls-8,.cls-9{stroke-miterlimit:10;}.cls-2{fill:#ef0418;stroke:#1036d8;}.cls-3{fill:#df0726;stroke:#2033cb;}.cls-4{fill:#cf0b33;stroke:#302fbd;}.cls-5{fill:#bf0f41;stroke:#402caf;}.cls-6{fill:#af124f;stroke:#5028a1;}.cls-7{fill:#9f165d;stroke:#602493;}.cls-8{fill:#8f196a;stroke:#702186;}.cls-9{fill:#801d78;stroke:#801d78;}.cls-10{fill:#702186;stroke:#8f196a;}.cls-11{fill:#602493;stroke:#9f165d;}.cls-12{fill:#5028a1;stroke:#af124f;}.cls-13{fill:#402caf;stroke:#bf0f41;}.cls-14{fill:#302fbd;stroke:#cf0b33;}.cls-15{fill:#2033cb;stroke:#df0726;}.cls-16{fill:#1036d8;stroke:#ef0418;}.cls-17{fill:#003ae6;stroke:#ff000a;}</style></defs><title>1er_plan_haut_gauche</title><path class="cls-1" d="M191.83,949.05S269,593.37,390.36,605.85s215.5-47.65,203.58-154.29S781.06,265.2,781.06,265.2L100.38,355.74Z" transform="translate(-99.81 -264.18)"/><path class="cls-2" d="M191.76,919.65s73.5-338.84,189.12-326.95,205.29-45.39,193.94-147S752.64,269.11,752.64,269.11L105.42,353.84Z" transform="translate(-99.81 -264.18)"/><path class="cls-3" d="M191.68,890.24s69.85-322,179.72-310.69,195.09-43.14,184.3-139.68S724.22,273,724.22,273L110.46,352Z" transform="translate(-99.81 -264.18)"/><path class="cls-4" d="M191.61,860.83S257.8,555.69,361.92,566.4,546.8,525.52,536.58,434,695.8,276.92,695.8,276.92L115.5,350.05Z" transform="translate(-99.81 -264.18)"/><path class="cls-5" d="M191.53,831.42s62.55-288.29,160.92-278.17,174.67-38.62,165-125.06S667.38,280.83,667.38,280.83L120.54,348.15Z" transform="translate(-99.81 -264.18)"/><path class="cls-6" d="M191.46,802S250.35,530.57,343,540.1s164.46-36.37,155.37-117.75S639,284.74,639,284.74L125.58,346.25Z" transform="translate(-99.81 -264.18)"/><path class="cls-7" d="M191.38,772.61S246.62,518,333.49,526.94s154.26-34.1,145.73-110.44S610.53,288.64,610.53,288.64L130.62,344.35Z" transform="translate(-99.81 -264.18)"/><path class="cls-8" d="M191.31,743.2S242.89,505.45,324,513.79,468.06,481.94,460.1,410.66s122-118.11,122-118.11L135.66,342.46Z" transform="translate(-99.81 -264.18)"/><path class="cls-9" d="M191.24,713.79s47.92-220.9,123.3-213.15S448.37,471.05,441,404.82,553.69,296.46,553.69,296.46l-413,44.1Z" transform="translate(-99.81 -264.18)"/><path class="cls-10" d="M191.16,684.38s44.27-204,113.9-196.89S428.69,460.16,421.85,399s103.42-98.61,103.42-98.61L145.74,338.66Z" transform="translate(-99.81 -264.18)"/><path class="cls-11" d="M191.09,655S231.7,467.77,295.58,474.34,409,449.26,402.73,393.13s94.12-88.85,94.12-88.85L150.78,336.76Z" transform="translate(-99.81 -264.18)"/><path class="cls-12" d="M191,625.57s37-170.36,95.09-164.38,103.22-22.82,97.51-73.9,84.81-79.11,84.81-79.11l-312.6,26.68Z" transform="translate(-99.81 -264.18)"/><path class="cls-13" d="M190.94,596.16S224.24,442.65,276.62,448s93-20.57,87.87-66.59S440,312.09,440,312.09L160.86,333Z" transform="translate(-99.81 -264.18)"/><path class="cls-14" d="M190.87,566.75s29.64-136.66,76.28-131.86,82.8-18.31,78.22-59.29S411.58,316,411.58,316L165.9,331.07Z" transform="translate(-99.81 -264.18)"/><path class="cls-15" d="M190.79,537.35s26-119.82,66.88-115.61,72.59-16.05,68.58-52,56.91-49.85,56.91-49.85l-212.22,9.26Z" transform="translate(-99.81 -264.18)"/><path class="cls-16" d="M190.72,507.94s22.34-103,57.47-99.36,62.39-13.79,58.94-44.66,47.61-40.11,47.61-40.11L176,327.27Z" transform="translate(-99.81 -264.18)"/><path class="cls-17" d="M190.64,478.53s18.69-86.12,48.07-83.1,52.18-11.53,49.3-37.35,38.3-30.36,38.3-30.36L181,325.37Z" transform="translate(-99.81 -264.18)"/></svg>