<svg id="_2e_plan_haut" data-name="2e plan haut" xmlns="http://www.w3.org/2000/svg" viewBox="0 0 749.28 489.76"><defs><style>.cls-1{fill:#003ae6;stroke:#ff000a;}.cls-1,.cls-10,.cls-11,.cls-12,.cls-13,.cls-14,.cls-15,.cls-16,.cls-17,.cls-2,.cls-3,.cls-4,.cls-5,.cls-6,.cls-7,.cls-8,.cls-9{stroke-miterlimit:10;}.cls-2{fill:#1036d8;stroke:#ef0418;}.cls-3{fill:#2033cb;stroke:#df0726;}.cls-4{fill:#302fbd;stroke:#cf0b33;}.cls-5{fill:#402caf;stroke:#bf0f41;}.cls-6{fill:#5028a1;stroke:#af124f;}.cls-7{fill:#602493;stroke:#9f165d;}.cls-8{fill:#702186;stroke:#8f196a;}.cls-9{fill:#801d78;stroke:#801d78;}.cls-10{fill:#8f196a;stroke:#702186;}.cls-11{fill:#9f165d;stroke:#602493;}.cls-12{fill:#af124f;stroke:#5028a1;}.cls-13{fill:#bf0f41;stroke:#402caf;}.cls-14{fill:#cf0b33;stroke:#302fbd;}.cls-15{fill:#df0726;stroke:#2033cb;}.cls-16{fill:#ef0418;stroke:#1036d8;}.cls-17{fill:#ff000a;stroke:#003ae6;}</style></defs><title>2e_plan_haut_</title><path class="cls-1" d="M29.69,432.57s320.12,13.69,368,122.31S540.8,714.79,623.67,654.37,776.56,387.12,776.56,387.12L466.24,191.39Z" transform="translate(-27.89 -190.81)"/><path class="cls-2" d="M55.49,426.09s305.15,11.28,350.8,114.75S542.66,695.93,621.6,638.37s146-252.16,146-252.16L472.43,195Z" transform="translate(-27.89 -190.81)"/><path class="cls-3" d="M81.3,419.61s290.18,8.88,333.55,107.2,129.67,150.26,204.69,95.56S758.62,385.3,758.62,385.3l-280-186.77Z" transform="translate(-27.89 -190.81)"/><path class="cls-4" d="M107.11,413.13s275.2,6.47,316.3,99.65,123,145.43,194.06,93.6,132.18-222,132.18-222L484.8,202.09Z" transform="translate(-27.89 -190.81)"/><path class="cls-5" d="M132.92,406.65s260.22,4.06,299.06,92.1,116.26,140.6,183.43,91.63,125.27-206.9,125.27-206.9L491,205.66Z" transform="translate(-27.89 -190.81)"/><path class="cls-6" d="M158.72,400.17S404,401.83,440.54,484.72,550.1,620.5,613.34,574.39,731.71,382.57,731.71,382.57L497.17,209.23Z" transform="translate(-27.89 -190.81)"/><path class="cls-7" d="M184.53,393.7s230.27-.76,264.57,77,102.86,131,162.17,87.7S722.74,381.66,722.74,381.66L503.36,212.79Z" transform="translate(-27.89 -190.81)"/><path class="cls-8" d="M210.34,387.22s215.29-3.17,247.32,69.43,96.16,126.13,151.55,85.74S713.77,380.75,713.77,380.75L509.54,216.36Z" transform="translate(-27.89 -190.81)"/><path class="cls-9" d="M236.14,380.74s200.32-5.57,230.08,61.88,89.45,121.3,140.92,83.78S704.8,379.84,704.8,379.84L515.73,219.93Z" transform="translate(-27.89 -190.81)"/><path class="cls-10" d="M262,374.26s185.35-8,212.84,54.33,82.74,116.47,130.29,81.81,90.75-131.47,90.75-131.47L521.91,223.5Z" transform="translate(-27.89 -190.81)"/><path class="cls-11" d="M287.76,367.78s170.37-10.39,195.59,46.78,76,111.65,119.66,79.85S686.86,378,686.86,378l-158.76-151Z" transform="translate(-27.89 -190.81)"/><path class="cls-12" d="M313.57,361.3S469,348.51,491.91,400.53s69.34,106.82,109,77.88,76.95-101.3,76.95-101.3L534.29,230.63Z" transform="translate(-27.89 -190.81)"/><path class="cls-13" d="M339.37,354.82s140.42-15.2,161.1,31.68,62.64,102,98.41,75.91,70-86.21,70-86.21l-128.45-142Z" transform="translate(-27.89 -190.81)"/><path class="cls-14" d="M365.18,348.34S490.62,330.73,509,372.47s55.94,97.16,87.78,73.95S660,375.29,660,375.29L546.66,237.76Z" transform="translate(-27.89 -190.81)"/><path class="cls-15" d="M391,341.87s110.46-20,126.6,16.56,49.24,92.34,77.16,72,56.23-56,56.23-56l-98.14-133Z" transform="translate(-27.89 -190.81)"/><path class="cls-16" d="M416.8,335.39s95.49-22.43,109.36,9,42.53,87.52,66.52,70,49.33-41,49.33-41L559,244.9Z" transform="translate(-27.89 -190.81)"/><path class="cls-17" d="M442.6,328.91s80.52-24.84,92.12,1.46,35.83,82.69,55.89,68.06A347.16,347.16,0,0,1,633,372.56L565.21,248.47Z" transform="translate(-27.89 -190.81)"/></svg>