<svg id="_2e_plan_bas_droite" data-name="2e plan bas droite" xmlns="http://www.w3.org/2000/svg" viewBox="0 0 772.82 604.81"><defs><style>.cls-1{fill:#003ae6;stroke:#ff000a;}.cls-1,.cls-10,.cls-11,.cls-12,.cls-13,.cls-14,.cls-15,.cls-16,.cls-17,.cls-2,.cls-3,.cls-4,.cls-5,.cls-6,.cls-7,.cls-8,.cls-9{stroke-miterlimit:10;}.cls-2{fill:#1036d8;stroke:#ef0418;}.cls-3{fill:#2033cb;stroke:#df0726;}.cls-4{fill:#302fbd;stroke:#cf0b33;}.cls-5{fill:#402caf;stroke:#bf0f41;}.cls-6{fill:#5028a1;stroke:#af124f;}.cls-7{fill:#602493;stroke:#9f165d;}.cls-8{fill:#702186;stroke:#8f196a;}.cls-9{fill:#801d78;stroke:#801d78;}.cls-10{fill:#8f196a;stroke:#702186;}.cls-11{fill:#9f165d;stroke:#602493;}.cls-12{fill:#af124f;stroke:#5028a1;}.cls-13{fill:#bf0f41;stroke:#402caf;}.cls-14{fill:#cf0b33;stroke:#302fbd;}.cls-15{fill:#df0726;stroke:#2033cb;}.cls-16{fill:#ef0418;stroke:#1036d8;}.cls-17{fill:#ff000a;stroke:#003ae6;}</style></defs><title>2e_plan_bas_droite</title><path class="cls-1" d="M35.08,893.25s56.47-318.56,268-282.58c153.35,26.08,204.54-97,221.09-166.64,13.13-55.26,56.22-98.68,111.06-110.22,35.5-7.47,77.67-2.1,122.47,33.31,122.88,97.13-23.52,567.55-23.52,567.55Z" transform="translate(-34.49 -330.38)"/><path class="cls-2" d="M71.27,894.32s54-305,254.39-270.82c145.31,24.75,194-93.1,209.78-159.79,12.52-52.9,53.42-94.52,105.42-105.64,33.66-7.2,73.62-2.11,116,31.72C873.23,482.58,733.83,933,733.83,933Z" transform="translate(-34.49 -330.38)"/><path class="cls-3" d="M107.45,895.38s51.45-291.37,240.8-259c137.28,23.42,183.46-89.21,198.47-152.94,11.92-50.55,50.63-90.36,99.78-101.06,31.82-6.92,69.57-2.13,109.6,30.12,109.79,88.46-22.61,518.89-22.61,518.89Z" transform="translate(-34.49 -330.38)"/><path class="cls-4" d="M143.64,896.45s48.93-277.78,227.2-247.3C500.08,671.25,543.76,563.83,558,503.07c11.3-48.19,47.82-86.2,94.13-96.48,30-6.65,65.52-2.14,103.16,28.53,103.25,84.12-22.15,494.56-22.15,494.56Z" transform="translate(-34.49 -330.38)"/><path class="cls-5" d="M179.82,897.51S226.24,633.34,393.43,662c121.2,20.77,162.38-81.44,175.86-139.23,10.69-45.84,45-82,88.48-91.9,28.14-6.38,61.47-2.16,96.73,26.93C851.21,537.56,732.81,928,732.81,928Z" transform="translate(-34.49 -330.38)"/><path class="cls-6" d="M216,898.58S259.92,648,416,674.81c113.17,19.45,151.84-77.55,164.55-132.37,10.08-43.49,42.22-77.89,82.84-87.32,26.29-6.11,57.42-2.18,90.3,25.33,90.16,75.44-21.24,445.91-21.24,445.91Z" transform="translate(-34.49 -330.38)"/><path class="cls-7" d="M252.2,899.64s41.39-237,186.41-212C543.74,705.76,579.91,614,591.85,562.12c9.47-41.14,39.43-73.73,77.2-82.74,24.45-5.84,53.37-2.2,83.86,23.73,83.62,71.11-20.79,421.58-20.79,421.58Z" transform="translate(-34.49 -330.38)"/><path class="cls-8" d="M288.38,900.71S327.26,677.32,461.2,700.47C558.3,717.26,592,630.69,603.13,581.8c8.86-38.78,36.63-69.57,71.56-78.16,22.6-5.57,49.32-2.21,77.42,22.14C829.19,592.55,731.78,923,731.78,923Z" transform="translate(-34.49 -330.38)"/><path class="cls-9" d="M324.57,901.78S360.94,692,483.79,713.3C572.85,728.76,604,647.4,614.41,601.48c8.26-36.43,33.83-65.4,65.91-73.58,20.77-5.29,45.28-2.22,71,20.54,70.54,62.44-19.87,372.93-19.87,372.93Z" transform="translate(-34.49 -330.38)"/><path class="cls-10" d="M360.76,902.84s33.85-196.2,145.61-176.71c81,14.13,109.69-62,119.33-105,7.64-34.07,31-61.24,60.26-69,18.92-5,41.23-2.24,64.56,19,64,58.1-19.42,348.6-19.42,348.6Z" transform="translate(-34.49 -330.38)"/><path class="cls-11" d="M396.94,903.91S428.28,721.3,529,739c73,12.81,99.15-58.13,108-98.12,7-31.72,28.23-57.08,54.62-64.42,17.08-4.75,37.17-2.25,58.12,17.35,57.45,53.77-19,324.27-19,324.27Z" transform="translate(-34.49 -330.38)"/><path class="cls-12" d="M433.13,905S462,736,551.55,751.79c65,11.48,88.61-54.25,96.71-91.27,6.42-29.36,25.43-52.92,49-59.84,15.24-4.47,33.13-2.27,51.69,15.75,50.91,49.44-18.5,300-18.5,300Z" transform="translate(-34.49 -330.38)"/><path class="cls-13" d="M469.31,906s26.32-155.41,104.83-141.42c56.92,10.15,78.07-50.36,85.4-84.41,5.81-27,22.63-48.77,43.33-55.27,13.4-4.2,29.08-2.28,45.26,14.16,44.36,45.1-18.06,275.62-18.06,275.62Z" transform="translate(-34.49 -330.38)"/><path class="cls-14" d="M505.5,907.1s23.8-141.81,91.23-129.65c48.89,8.82,67.53-46.48,74.09-77.56,5.2-24.66,19.84-44.61,37.69-50.69,11.55-3.93,25-2.3,38.82,12.56,37.82,40.77-17.6,251.3-17.6,251.3Z" transform="translate(-34.49 -330.38)"/><path class="cls-15" d="M541.69,908.17S563,780,619.32,790.28c40.85,7.49,57-42.59,62.78-70.71,4.6-22.31,17-40.45,32-46.1,9.71-3.66,21-2.32,32.38,11,31.29,36.43-17.14,227-17.14,227Z" transform="translate(-34.49 -330.38)"/><path class="cls-16" d="M577.87,909.23s18.78-114.62,64-106.12c32.81,6.17,46.45-38.71,51.47-63.86,4-20,14.24-36.29,26.4-41.52,7.88-3.39,16.94-2.34,26,9.36,24.74,32.09-16.69,202.64-16.69,202.64Z" transform="translate(-34.49 -330.38)"/><path class="cls-17" d="M614.06,910.3s16.26-101,50.44-94.36c24.78,4.84,35.92-34.83,40.17-57C708,741.34,716.1,726.8,725.42,722c6-3.12,12.88-2.35,19.52,7.77,18.2,27.75-16.23,178.31-16.23,178.31Z" transform="translate(-34.49 -330.38)"/></svg>