<svg id="_3e_plan_gauche" data-name="3e plan gauche" xmlns="http://www.w3.org/2000/svg" viewBox="0 0 499.31 321.33"><defs><style>.cls-1{fill:#ff000a;stroke:#003ae6;}.cls-1,.cls-10,.cls-11,.cls-12,.cls-13,.cls-14,.cls-15,.cls-16,.cls-17,.cls-2,.cls-3,.cls-4,.cls-5,.cls-6,.cls-7,.cls-8,.cls-9{stroke-miterlimit:10;}.cls-2{fill:#ef0418;stroke:#1036d8;}.cls-3{fill:#df0726;stroke:#2033cb;}.cls-4{fill:#cf0b33;stroke:#302fbd;}.cls-5{fill:#bf0f41;stroke:#402caf;}.cls-6{fill:#af124f;stroke:#5028a1;}.cls-7{fill:#9f165d;stroke:#602493;}.cls-8{fill:#8f196a;stroke:#702186;}.cls-9{fill:#801d78;stroke:#801d78;}.cls-10{fill:#702186;stroke:#8f196a;}.cls-11{fill:#602493;stroke:#9f165d;}.cls-12{fill:#5028a1;stroke:#af124f;}.cls-13{fill:#402caf;stroke:#bf0f41;}.cls-14{fill:#302fbd;stroke:#cf0b33;}.cls-15{fill:#2033cb;stroke:#df0726;}.cls-16{fill:#1036d8;stroke:#ef0418;}.cls-17{fill:#003ae6;stroke:#ff000a;}</style></defs><title>3e_plan_gauche</title><path class="cls-1" d="M183.67,525s79.15-79.62,151.79-59.3,68.63,116.6,245.6,74.23c64.76-15.51,61.09,215.84,7.94,237-96,38.19-457.9-124.68-457.9-124.68Z" transform="translate(-130.45 -461.84)"/><path class="cls-2" d="M193.94,536s75.23-75.57,144.28-56.3,65.22,110.66,233.43,70.41c61.55-14.72,58,204.85,7.51,224.92-91.27,36.26-435.22-118.26-435.22-118.26Z" transform="translate(-130.45 -461.84)"/><path class="cls-3" d="M204.2,546.94s71.33-71.53,136.78-53.3,61.8,104.71,221.26,66.6c58.35-14,55,193.84,7.09,212.85C482.8,807.42,156.79,661.24,156.79,661.24Z" transform="translate(-130.45 -461.84)"/><path class="cls-4" d="M214.46,557.94s67.43-67.49,129.28-50.31,58.39,98.76,209.09,62.78c55.15-13.16,51.93,182.85,6.66,200.79-81.78,32.39-389.85-105.44-389.85-105.44Z" transform="translate(-130.45 -461.84)"/><path class="cls-5" d="M224.72,568.93s63.52-63.45,121.77-47.31,55,92.82,196.93,59c52-12.39,48.87,171.85,6.23,188.71-77,30.47-367.17-99-367.17-99Z" transform="translate(-130.45 -461.84)"/><path class="cls-6" d="M235,579.92s59.61-59.4,114.26-44.31S400.81,622.48,534,590.76c48.74-11.6,45.82,160.86,5.8,176.65-72.28,28.54-344.48-92.6-344.48-92.6Z" transform="translate(-130.45 -461.84)"/><path class="cls-7" d="M245.25,590.92S301,535.55,352,549.6s48.15,80.92,172.59,51.34c45.54-10.83,42.76,149.85,5.38,164.58-67.54,26.61-321.81-86.19-321.81-86.19Z" transform="translate(-130.45 -461.84)"/><path class="cls-8" d="M255.51,601.91s51.8-51.32,99.26-38.32,44.73,75,160.42,47.52c42.34-10,39.71,138.86,4.95,152.52C457.35,788.31,221,683.86,221,683.86Z" transform="translate(-130.45 -461.84)"/><path class="cls-9" d="M265.77,612.9s47.9-47.28,91.76-35.32,41.31,69,148.25,43.71c39.14-9.27,36.65,127.86,4.52,140.45-58,22.75-276.43-73.36-276.43-73.36Z" transform="translate(-130.45 -461.84)"/><path class="cls-10" d="M276,623.9s44-43.24,84.24-32.33,37.91,63.08,136.1,39.89C532.3,623,530,748.32,500.46,759.85c-53.29,20.82-253.75-67-253.75-67Z" transform="translate(-130.45 -461.84)"/><path class="cls-11" d="M286.3,634.89s40.09-39.2,76.74-29.33S397.53,662.7,487,641.64c32.72-7.71,30.53,105.86,3.66,116.32-48.55,18.88-231.07-60.53-231.07-60.53Z" transform="translate(-130.45 -461.84)"/><path class="cls-12" d="M296.56,645.88s36.18-35.15,69.24-26.33,31.08,51.19,111.76,32.26c29.52-6.93,27.48,94.87,3.23,104.25C437,773,272.41,702,272.41,702Z" transform="translate(-130.45 -461.84)"/><path class="cls-13" d="M306.82,656.88s32.28-31.12,61.74-23.34,27.66,45.24,99.59,28.45c26.32-6.15,24.42,83.86,2.8,92.18-39.05,15-185.7-47.7-185.7-47.7Z" transform="translate(-130.45 -461.84)"/><path class="cls-14" d="M317.09,667.87s28.37-27.07,54.23-20.34,24.24,39.3,87.42,24.63c23.12-5.37,21.37,72.87,2.38,80.12-34.31,13.1-163-41.28-163-41.28Z" transform="translate(-130.45 -461.84)"/><path class="cls-15" d="M327.35,678.86s24.46-23,46.73-17.34,20.83,33.35,75.25,20.81c19.91-4.58,18.31,61.88,1.95,68.06-29.56,11.17-140.34-34.87-140.34-34.87Z" transform="translate(-130.45 -461.84)"/><path class="cls-16" d="M337.61,689.86s20.56-19,39.22-14.35,17.42,27.4,63.09,17c16.71-3.81,15.26,50.88,1.52,56C416.63,757.74,323.79,720,323.79,720Z" transform="translate(-130.45 -461.84)"/><path class="cls-17" d="M347.88,700.85s16.65-15,31.71-11.35,14,21.46,50.92,13.18c13.51-3,12.2,39.88,1.09,43.93-20.06,7.3-95-22-95-22Z" transform="translate(-130.45 -461.84)"/></svg>