<svg id="_5e_plan_bas_droite" data-name="5e plan bas droite" xmlns="http://www.w3.org/2000/svg" viewBox="0 0 550.76 484.17"><defs><style>.cls-1{fill:#ff000a;stroke:#003ae6;}.cls-1,.cls-10,.cls-11,.cls-12,.cls-13,.cls-14,.cls-15,.cls-16,.cls-17,.cls-2,.cls-3,.cls-4,.cls-5,.cls-6,.cls-7,.cls-8,.cls-9{stroke-miterlimit:10;}.cls-2{fill:#ef0418;stroke:#1036d8;}.cls-3{fill:#df0726;stroke:#2033cb;}.cls-4{fill:#cf0b33;stroke:#302fbd;}.cls-5{fill:#bf0f41;stroke:#402caf;}.cls-6{fill:#af124f;stroke:#5028a1;}.cls-7{fill:#9f165d;stroke:#602493;}.cls-8{fill:#8f196a;stroke:#702186;}.cls-9{fill:#801d78;stroke:#801d78;}.cls-10{fill:#702186;stroke:#8f196a;}.cls-11{fill:#602493;stroke:#9f165d;}.cls-12{fill:#5028a1;stroke:#af124f;}.cls-13{fill:#402caf;stroke:#bf0f41;}.cls-14{fill:#302fbd;stroke:#cf0b33;}.cls-15{fill:#2033cb;stroke:#df0726;}.cls-16{fill:#1036d8;stroke:#ef0418;}.cls-17{fill:#003ae6;stroke:#ff000a;}</style></defs><title>5e_plan_bas_droite</title><path class="cls-1" d="M630.31,453.89S557.06,543.52,479,541.05C444.91,540,394.12,527.49,376.6,517.9c-33.8-18.51-83.29-9.11-114.7,13.19-34.79,24.7-51.7,65,36,124.45,21.42,14.52,33.74,39.44,31.39,65.21s-52.55,43.77-79.07,56.38c-56.58,26.89-75.2,59-91.7,119.48l-2.76,39.83h246.6L705.38,802.11Z" transform="translate(-155.19 -452.77)"/><path class="cls-2" d="M631.46,472.61S561,558.63,486,556.25c-32.82-1-81.67-13-98.52-22.22-32.5-17.75-80.09-8.74-110.3,12.67-33.45,23.7-49.72,62.41,34.58,119.43,20.6,13.93,32.45,37.85,30.19,62.58s-50.54,42-76,54.11c-54.41,25.81-72.32,56.67-88.18,114.67l-2.65,38.22H412.21L703.64,806.79Z" transform="translate(-155.19 -452.77)"/><path class="cls-3" d="M632.6,491.32S565,573.73,492.93,571.46c-31.51-1-78.41-12.47-94.59-21.29-31.2-17-76.89-8.37-105.9,12.13-32.12,22.71-47.73,59.8,33.21,114.42,19.77,13.35,31.15,36.26,29,60s-48.52,40.24-73,51.83C229.38,813.23,212.19,842.8,197,898.36L194.41,935H422.1L701.91,811.47Z" transform="translate(-155.19 -452.77)"/><path class="cls-4" d="M633.75,510s-64.83,78.79-133.87,76.62c-30.21-.95-75.16-11.92-90.66-20.35-29.91-16.27-73.7-8-101.51,11.6-30.78,21.71-45.75,57.17,31.83,109.4,19,12.76,29.86,34.68,27.78,57.33s-46.51,38.47-70,49.56c-50.07,23.64-66.55,51.91-81.15,105l-2.44,35H432L700.18,816.16Z" transform="translate(-155.19 -452.77)"/><path class="cls-5" d="M634.89,528.76s-62,75.18-128.07,73.1c-28.89-.9-71.89-11.37-86.73-19.42-28.61-15.52-70.51-7.63-97.1,11.07-29.46,20.72-43.77,54.56,30.44,104.39C371.57,710.08,382,731,380,752.6s-44.49,36.71-66.94,47.29c-47.9,22.56-63.67,49.53-77.64,100.23l-2.33,33.4H441.87L698.44,820.84Z" transform="translate(-155.19 -452.77)"/><path class="cls-6" d="M636,547.47S576.83,619,513.77,617.07c-27.59-.86-68.64-10.83-82.81-18.49-27.31-14.77-67.31-7.27-92.7,10.54-28.12,19.72-41.79,51.93,29.07,99.37,17.31,11.59,27.26,31.5,25.37,52.07s-42.48,35-63.91,45C283.06,827.05,268,852.73,254.67,901l-2.23,31.8H451.76l245-107.27Z" transform="translate(-155.19 -452.77)"/><path class="cls-7" d="M637.18,566.19s-56.4,68-116.46,66.08c-26.28-.82-65.39-10.28-78.88-17.55-26-14-64.12-6.91-88.31,10-26.78,18.73-39.81,49.32,27.69,94.36,16.49,11,26,29.91,24.17,49.44s-40.47,33.19-60.88,42.75c-43.56,20.39-57.9,44.77-70.6,90.6l-2.13,30.19H461.65L695,830.21Z" transform="translate(-155.19 -452.77)"/><path class="cls-8" d="M638.33,584.91s-53.59,64.34-110.67,62.57c-25-.78-62.13-9.74-74.95-16.62-24.72-13.29-60.93-6.54-83.91,9.47C343.35,658.06,331,687,395.11,729.67c15.67,10.42,24.68,28.32,23,46.82S379.63,807.91,360.23,817c-41.39,19.31-55,42.39-67.09,85.78l-2,28.59h180.4l221.71-96.44Z" transform="translate(-155.19 -452.77)"/><path class="cls-9" d="M639.47,603.62s-50.78,60.74-104.86,59.06c-23.66-.73-58.88-9.19-71-15.69-23.43-12.53-57.74-6.17-79.52,8.94C360,672.67,348.23,700,409,740.26c14.85,9.84,23.39,26.73,21.76,44.19s-36.43,29.66-54.81,38.2c-39.22,18.22-52.13,40-63.57,81l-1.91,27h171l210.09-91Z" transform="translate(-155.19 -452.77)"/><path class="cls-10" d="M640.62,622.34s-48,57.12-99.07,55.54c-22.35-.68-55.61-8.64-67.09-14.75-22.13-11.79-54.54-5.8-75.12,8.41-22.78,15.74-33.85,41.45,23.56,79.31,14,9.25,22.09,25.14,20.55,41.56S409,820.3,391.67,828.34c-37.05,17.14-49.25,37.63-60.05,76.15l-1.81,25.38h161.5l198.47-85.61Z" transform="translate(-155.19 -452.77)"/><path class="cls-11" d="M641.76,641.05s-45.16,53.51-93.26,52c-21-.65-52.36-8.1-63.17-13.82-20.83-11-51.34-5.44-70.71,7.87-21.45,14.75-31.88,38.83,22.17,74.3,13.21,8.67,20.8,23.55,19.35,38.93S423.74,826.5,407.39,834c-34.88,16.06-46.36,35.26-56.53,71.34l-1.7,23.78h152L688,848.94Z" transform="translate(-155.19 -452.77)"/><path class="cls-12" d="M642.91,659.77s-42.36,49.9-87.47,48.52c-19.73-.6-49.1-7.55-59.23-12.89-19.54-10.3-48.16-5.07-66.32,7.35C409.77,716.5,400,739,450.68,772c12.39,8.08,19.51,22,18.15,36.31s-30.38,24.36-45.72,31.38c-32.71,15-43.48,32.88-53,66.52l-1.59,22.18H511.08l175.23-74.79Z" transform="translate(-155.19 -452.77)"/><path class="cls-13" d="M644.05,678.49s-39.54,46.28-81.66,45c-18.43-.56-45.85-7-55.31-12-18.24-9.55-45-4.7-61.92,6.81-18.78,12.76-27.91,33.59,19.42,64.27,11.56,7.5,18.21,20.37,16.94,33.68s-28.37,22.6-42.69,29.11c-30.54,13.89-40.59,30.5-49.5,61.71l-1.49,20.57H521l163.61-69.38Z" transform="translate(-155.19 -452.77)"/><path class="cls-14" d="M645.2,697.2s-36.74,42.68-75.87,41.5c-17.11-.51-42.59-6.46-51.37-11-17-8.81-41.77-4.34-57.53,6.28-17.44,11.76-25.93,31,18,59.25,10.74,6.91,16.92,18.78,15.74,31s-26.36,20.84-39.65,26.84c-28.38,12.81-37.72,28.12-46,56.89l-1.39,19H530.86l152-64Z" transform="translate(-155.19 -452.77)"/><path class="cls-15" d="M646.34,715.92s-33.93,39.06-70.06,38c-15.81-.47-39.34-5.91-47.45-10.09-15.65-8.06-38.57-4-53.13,5.75-16.11,10.77-23.94,28.35,16.66,54.24,9.92,6.33,15.63,17.19,14.54,28.42s-24.34,19.08-36.62,24.57c-26.21,11.72-34.83,25.74-42.47,52.08l-1.28,17.36H540.75l140.36-58.55Z" transform="translate(-155.19 -452.77)"/><path class="cls-16" d="M647.49,734.64s-31.12,35.45-64.27,34.47c-14.5-.43-36.07-5.36-43.52-9.16-14.35-7.32-35.38-3.6-48.72,5.22-14.78,9.77-22,25.72,15.27,49.22,9.1,5.74,14.34,15.6,13.34,25.79S497.26,857.5,486,862.48c-24,10.64-31.95,23.36-39,47.26l-1.17,15.76H550.63l128.75-53.14Z" transform="translate(-155.19 -452.77)"/><path class="cls-17" d="M648.63,753.35s-28.31,31.84-58.46,31c-13.19-.38-32.82-4.81-39.59-8.22-13.06-6.57-32.19-3.24-44.33,4.69-13.45,8.77-20,23.1,13.9,44.2,8.28,5.16,13,14,12.13,23.17s-20.31,15.54-30.56,20c-21.87,9.56-29.07,21-35.44,42.45l-1.07,14.15h95.31l117.12-47.72Z" transform="translate(-155.19 -452.77)"/></svg>