<svg id="Calque_5" data-name="Calque 5" xmlns="http://www.w3.org/2000/svg" viewBox="0 0 71.04 129.13"><defs><style>.cls-1{fill:#ff4a01;stroke:#ff4a01;stroke-miterlimit:10;stroke-width:8px;}</style></defs><title>facebook</title><path class="cls-1" d="M376.58,222.68c0-.32,0-.65,0-1q0-26.64,0-53.29v-1H357.91V145.88h18.62V145c0-5.5-.06-11,0-16.51a30.34,30.34,0,0,1,3.14-13.35c3.5-6.9,9.19-10.94,16.61-12.7a29.54,29.54,0,0,1,7.72-.85q6.78.19,13.56.44c.84,0,1.66.23,2.49.23s.87.29.86,1c0,5.9,0,11.79,0,17.69v.83H420c-3.51,0-7,0-10.52,0a22.33,22.33,0,0,0-4.61.54,7,7,0,0,0-5.71,6.37,36,36,0,0,0-.27,4c0,4.11,0,8.22,0,12.33v.85h21.29c-.94,7.23-1.86,14.35-2.79,21.55h-18.5v54.31c0,.32,0,.65-.05,1Z" transform="translate(-353.91 -97.55)"/></svg>