<svg id="Calque_10" data-name="Calque 10" xmlns="http://www.w3.org/2000/svg" viewBox="0 0 296.07 298.74"><defs><style>.cls-1{fill:#ff4a01;}</style></defs><title>fleche_medium</title><path class="cls-1" d="M699.28,170.28a455.2,455.2,0,0,1-42.23-47.34,668.11,668.11,0,0,1-42.24-61.8L578.36,88.7a417.31,417.31,0,0,0,37.56,50.46,385.86,385.86,0,0,0,38.24,38.23q9,7.79,17.94,14.16-12-1.61-25.28-2.82-24.45-2.22-55.12-2.22H449.88v47.56H591.7q30.66,0,55.12-2,13-1.06,24.7-2.56-8.61,6.18-17.36,13.68a374.67,374.67,0,0,0-38.24,38.45,451.75,451.75,0,0,0-37.56,50.24l36.45,28q21.78-35.11,42.24-61.79a401.86,401.86,0,0,1,42.23-47.35A476.71,476.71,0,0,1,746,211.85v-2.67A404.79,404.79,0,0,1,699.28,170.28Z" transform="translate(-449.88 -61.14)"/></svg>