<svg id="Calque_11" data-name="Calque 11" xmlns="http://www.w3.org/2000/svg" viewBox="0 0 305.82 312.7"><defs><style>.cls-1{fill:#003ae6;}</style></defs><title>fleche_bold</title><path class="cls-1" d="M309.11,332.66a473.65,473.65,0,0,1-43.86-49.82,680.69,680.69,0,0,1-43.39-64.52l-47.75,34.44a390.7,390.7,0,0,0,39.94,51.66,339.06,339.06,0,0,0,41.56,38.34c2.82,2.18,5.62,4.24,8.41,6.24q-10-1.39-20.58-2.57a592.22,592.22,0,0,0-63.82-3.21H51.5v62.91H179.62a587,587,0,0,0,63.82-3.22q10.63-1.16,20.59-2.56c-2.79,2-5.59,4.06-8.42,6.24a340.65,340.65,0,0,0-41.56,38.34,378.16,378.16,0,0,0-39.94,52.12l47.75,34q22-35.81,43.39-63.82a461.25,461.25,0,0,1,43.86-50.05,440.14,440.14,0,0,1,48.21-40.87v-2.76A439,439,0,0,1,309.11,332.66Z" transform="translate(-51.5 -218.32)"/></svg>