<svg id="Calque_4" data-name="Calque 4" xmlns="http://www.w3.org/2000/svg" viewBox="0 0 128.14 128.19"><defs><style>.cls-1{fill:#003ae6;stroke:#003ae6;stroke-miterlimit:10;stroke-width:7px;}</style></defs><title>insta</title><path class="cls-1" d="M241.61,222.68c-8.87-.13-17.76-.06-26.62-.46a34.25,34.25,0,0,1-22.36-9,32,32,0,0,1-8.84-14.44c-1.77-5.76-2-11.73-2.28-17.68-.6-13-.64-26.08,0-39.1a94.19,94.19,0,0,1,1.58-14.65,29.06,29.06,0,0,1,17.38-21.51,45.06,45.06,0,0,1,14.88-3.5c14.17-1.17,28.35-.66,42.53-.58a109.25,109.25,0,0,1,14,1.07c8.44,1.14,15.94,4.35,21.64,11a28.56,28.56,0,0,1,6.64,13.89,104.78,104.78,0,0,1,1.43,12.48,418.69,418.69,0,0,1,0,43.68,80.42,80.42,0,0,1-1.5,12.88c-2.33,10.6-8.49,18.24-18.58,22.53a43.66,43.66,0,0,1-17.35,3.19c-7.53,0-15.05,0-22.58,0Zm-.07-14.05c8.06-.14,16.07-.27,24.08-.45a34.08,34.08,0,0,0,10.91-1.92,16.91,16.91,0,0,0,10.85-10.67,37.55,37.55,0,0,0,1.75-11.78c.24-11.2.41-22.4.39-33.6,0-6.72-.06-13.48-1.46-20.1a16.83,16.83,0,0,0-11-12.89,37.27,37.27,0,0,0-13.47-2.2q-21.95-.09-43.91,0a39.17,39.17,0,0,0-12.29,1.79c-5.55,1.85-9.53,5.32-11.51,11a35.42,35.42,0,0,0-1.71,11.16c-.25,11.92-.42,23.86-.38,35.78,0,6.23.11,12.5,1.45,18.64a16.62,16.62,0,0,0,8.07,11.33A29,29,0,0,0,217,208.15C225.22,208.41,233.4,208.48,241.54,208.63Z" transform="translate(-177.55 -98.05)"/><path class="cls-1" d="M270.93,163.32a30.1,30.1,0,0,1-19.79,28.39,29.45,29.45,0,0,1-35.73-14.1,30.23,30.23,0,0,1,14.43-41.91c13.56-6,29.94-.42,37.25,12.81A30.12,30.12,0,0,1,270.93,163.32Zm-12.46-.07a17.08,17.08,0,1,0-16.91,17.49A17.2,17.2,0,0,0,258.47,163.25Z" transform="translate(-177.55 -98.05)"/></svg>