<svg id="Calque_8" data-name="Calque 8" xmlns="http://www.w3.org/2000/svg" viewBox="0 0 671.75 222.65"><defs><style>.cls-1{fill:#003ae6;}</style></defs><title>logo_dnamde</title><path class="cls-1" d="M662.29,260.39h87.06v13.34H648.73c-.08-1.13-.21-2-.21-2.91q0-52.35-.06-104.71c0-2.62.79-3.3,3.33-3.3q47.12.12,94.23.06c.89,0,1.79.13,2.92.22v13.13H662.3v29H743v13.63H662.29Z" transform="translate(-77.6 -162.44)"/><path class="cls-1" d="M527.65,273.86V163.21a7.49,7.49,0,0,1,1.43-.3c18.85.07,37.72-.38,56.55.36,26.72,1,49.2,20.62,54,46,4.28,22.64-7.6,45.94-29.18,57.28A64.31,64.31,0,0,1,580,274q-24.48,0-49-.12Zm13.51-13.71a14.44,14.44,0,0,0,1.82.26c13,0,26,.08,39-.05a50.27,50.27,0,0,0,24.91-7.1c21.44-12.39,27.33-38.32,12.85-57.29-8.51-11.15-20.07-17.87-33.93-18.92-14.52-1.09-29.17-.55-43.77-.71a3.49,3.49,0,0,0-.87.35Z" transform="translate(-77.6 -162.44)"/><path class="cls-1" d="M77.67,218.19c0-17,.06-34-.07-51,0-3,.76-4,3.86-3.94,17.36.15,34.75-.45,52.09.24,22.84.91,45,14.27,53.28,37.63,8.79,25-2.66,52.32-26.83,65a66.32,66.32,0,0,1-31.13,7.52c-15.86,0-31.72-.35-47.57-.4-2.9,0-3.7-1-3.69-3.79C77.72,252.39,77.67,235.29,77.67,218.19Zm12.64.05c0,13,.07,25.93-.06,38.89,0,3,1,4,4,4,11.61-.12,23.22.11,34.82-.09,11.86-.21,22.86-3.29,32.48-10.55,18.38-13.88,21.77-38.5,7.41-55.89-10-12.12-23.26-18.06-38.82-18.57-11.71-.39-23.44-.09-35.17-.08-4.63,0-4.64,0-4.64,4.8Q90.29,199.5,90.31,218.24Z" transform="translate(-77.6 -162.44)"/><path class="cls-1" d="M514.41,274c-4,0-7.42-.15-10.86.06-2.22.13-3.2-.74-4-2.69-5-11.8-10.3-23.51-15.28-35.34-1.06-2.51-2.32-3.37-5.07-3.34-13.68.16-27.36.14-41,0-2.38,0-3.42.8-4.31,2.87-5,11.67-10.22,23.29-15.35,34.93-.51,1.14-1.05,2.27-1.57,3.41H403.25l7.56-17.11q20.08-45.44,40.1-90.89c1.07-2.44,2.51-2.76,4.88-3.16,7.88-1.34,11.44,1.94,14.49,9.23,13.71,32.76,28.16,65.21,42.35,97.78C513.17,271,513.68,272.25,514.41,274Zm-37.71-55.1c-5.88-13.47-11.61-26.6-17.66-40.44l-17.78,40.44Z" transform="translate(-77.6 -162.44)"/><path class="cls-1" d="M375,183.29l-41.19,44.86L273.66,163.1c6.53,0,12.22-.13,17.89.12,1.07.05,2.18,1.52,3.09,2.5q18.76,20.17,37.48,40.41c.53.57,1.13,1.08,1.8,1.72,13.15-14.16,26.23-28.18,39.18-42.31a7.17,7.17,0,0,1,6.23-2.73c3.2.2,6.42.05,9.86.05V273.67H375.78V183.55Z" transform="translate(-77.6 -162.44)"/><path class="cls-1" d="M214.57,183.08v4c0,27.32-.06,54.63.07,81.95,0,3.33-1,4.33-4.28,4.26-8.43-.16-8.43,0-8.43-8.3,0-32.48,0-65-.07-97.45,0-3.3,1-4,4.22-4.34,6.6-.65,10.88,1.88,15.28,6.73,30.62,33.78,61.56,67.27,92.4,100.85.54.58,1.05,1.18,2.07,2.34-5.8,0-11,.14-16.21-.11-1.1-.06-2.27-1.42-3.17-2.4q-34.84-38-69.62-75.94c-3.69-4-7.41-8-11.12-12Z" transform="translate(-77.6 -162.44)"/><path class="cls-1" d="M548.8,376.52h-5.08c0-3.13.14-6.1,0-9-.26-4.41-3.26-6.72-7.44-5.89-2.47.49-4.14,1.6-3.93,4.62.23,3.39.05,6.81.05,10.34h-5c0-2.8.1-5.61,0-8.42-.21-5-3.35-7.51-7.93-6.49-2.6.57-4.31,1.76-4.05,4.92s.05,6.59.05,10h-5V357c6.15,2.37,12.74-2.47,18.67,2.12.43.33,1.59-.29,2.42-.43,3-.52,6-1.63,9-1.39,5.19.42,8,3.7,8.25,8.91C549,369.5,548.8,372.82,548.8,376.52Z" transform="translate(-77.6 -162.44)"/><path class="cls-1" d="M547.07,312.29c4.6-.23,9.21-1.46,13.22-.39,4.55,1.21,8.39.75,12.82-.08,7.87-1.47,12.25,2.8,12.29,10.75,0,2.74,0,5.48,0,8.48h-5.1c0-3,.14-6,0-9.06-.27-4.38-3.35-6.73-7.49-5.86-2.48.52-4.09,1.69-3.88,4.68.23,3.39.05,6.82.05,10.37h-5c0-2.83.1-5.65,0-8.47-.2-4.78-2.91-7.2-7.23-6.65-3.69.47-4.68,1.59-4.7,5.35,0,3.19,0,6.39,0,9.75h-5Z" transform="translate(-77.6 -162.44)"/><path class="cls-1" d="M499,375.35a53.34,53.34,0,0,1-6.62,1.32c-6.92.5-11.84-3.34-12.14-9.27s3.94-10.16,10.82-10.4c4.19-.15,8.4.45,12.81.72,0,6.26.28,12.67-.09,19a8.31,8.31,0,0,1-7.69,8.06c-4.34.51-8.79.11-13.34.11.62-3.83,1.56-5.22,5.11-4.37C494.22,382.1,497.65,380.27,499,375.35Zm.08-8.71c0-3.69-1.94-5.2-6.64-5.22-4,0-7,2.45-6.92,5.59.1,2.88,3.11,5.39,6.47,5.41C496.62,372.45,499.12,370.41,499.11,366.64Z" transform="translate(-77.6 -162.44)"/><path class="cls-1" d="M377.34,339.42c.63-4.1,1.89-5,5.1-4.27,5.87,1.35,9.47-.23,10.87-3.93a3.9,3.9,0,0,0,.15-1c-3.13.36-6.16,1.08-9.15,1a9.44,9.44,0,0,1-9.44-9.09c-.24-5.37,3-9.26,8.61-10.22a9.44,9.44,0,0,1,2.74-.22,60.89,60.89,0,0,0,6.09.91,38.82,38.82,0,0,0,6-.83c0,7,.31,13.64-.12,20.22a7.82,7.82,0,0,1-7.13,7.39C386.64,339.84,382.08,339.42,377.34,339.42Zm16.26-18.21c0-3.66-1.92-5.2-6.56-5.25-4,0-7,2.32-6.87,5.57.09,3.06,2.82,5.39,6.36,5.43C391.14,327,393.6,325,393.6,321.21Z" transform="translate(-77.6 -162.44)"/><path class="cls-1" d="M456.16,330.54v8.31h-5V312.44c4.16-.29,8.15-.7,12.16-.83,7-.23,11.6,4,11.38,10.36-.2,6-5.52,10.28-12.21,9.69C460.58,331.49,458.68,331,456.16,330.54Zm-.08-8.73c0,3.91,1.72,5.35,6.44,5.37,4.06,0,7-2.26,7-5.53S466.67,316,463,316C458.24,315.93,456.08,317.76,456.08,321.81Z" transform="translate(-77.6 -162.44)"/><path class="cls-1" d="M597.5,324.45c4,4.15,9,2.63,14,1.81l1.53,3.12c-3.48,3.42-14.81,2.88-18.76-.86a9.55,9.55,0,0,1-.37-13.56c3.2-3.31,9.71-4.44,14.49-2.52,4.61,1.85,6.75,5.23,6.62,10.86H597.67Zm-.12-5.14h11.83C606.3,314.72,600.6,314.7,597.38,319.31Z" transform="translate(-77.6 -162.44)"/><path class="cls-1" d="M438.32,319.52c-3.75-5.6-8.7-3.13-13.72-2.34-.46-1.12-1-2.33-1.54-3.79,4.92-1.76,9.64-2.44,14.44-1.34,4,.91,6,3.9,6.3,7.72s.07,7.51.07,11.94c-1.85-.48-3.35-1-4.89-1.23a11.25,11.25,0,0,0-2.43.21c-3.28.18-6.6.74-9.82.36a5.52,5.52,0,0,1-5.15-5.9c0-3.32,2-5.16,5-5.65a56.3,56.3,0,0,1,8.53-.41A22.21,22.21,0,0,1,438.32,319.52Zm1,4c-3.83-.15-7.06-.4-10.27-.3-.72,0-1.4,1.22-2.1,1.88.61.62,1.12,1.49,1.86,1.81C431.72,328.12,436.37,326.78,439.32,323.5Z" transform="translate(-77.6 -162.44)"/><path class="cls-1" d="M439.94,365c-1.86-4.1-5.15-4.6-13.8-2.26-.49-1.18-1-2.39-1.62-3.86,4.8-1.71,9.46-2.57,14.29-1.41a8.06,8.06,0,0,1,6.44,7.61c.34,3.72.08,7.5.08,11.09-5,.29-9.84.62-14.67.8a9.15,9.15,0,0,1-3.35-.68c-2.76-1-4.43-2.9-4.31-5.93a5.3,5.3,0,0,1,4.6-5.29,62.53,62.53,0,0,1,9.2-.49A21.63,21.63,0,0,1,439.94,365Zm.32,3.94c-3.2-.13-6.4-.39-9.59-.32-.76,0-1.5,1.13-2.24,1.73.64.7,1.19,1.88,1.94,2C434,373.08,437.51,372.67,440.26,368.93Z" transform="translate(-77.6 -162.44)"/><path class="cls-1" d="M576.37,375.4c-5.77,2.2-11.46,2.59-17-.28A9.06,9.06,0,0,1,555.56,363c2.2-4.67,7.93-7,14.22-5.66,5.23,1.07,8.53,4.82,8.8,10a9.18,9.18,0,0,1-.23,1.58H561.14l-.43.83c1.08.75,2.07,1.95,3.24,2.14,2.55.43,5.31.89,7.76.33C574.52,371.56,575.84,372.12,576.37,375.4Zm-3.69-10.62c-3.06-4.63-8.8-4.6-11.86,0Z" transform="translate(-77.6 -162.44)"/><path class="cls-1" d="M653.76,369H636.63l-.43.95c1.45.8,2.83,2,4.38,2.3a15.86,15.86,0,0,0,6.79,0c2.89-.8,4.08,0,4.39,2.76-4.76,3.14-13.92,2.76-18.16-.74a9.45,9.45,0,0,1-.36-14.23c4.42-4,13.06-4.11,17.48-.07A9.4,9.4,0,0,1,653.76,369Zm-5.82-4.22c.17-.27.33-.55.49-.82-1.71-.84-3.36-2.07-5.17-2.41a6.21,6.21,0,0,0-7.12,3.23Z" transform="translate(-77.6 -162.44)"/><path class="cls-1" d="M485.08,331.2h-4.83v-27h4.81v8.19c3.12-.3,5.82-.86,8.5-.76,5.18.18,8.66,3.52,9,8.61.25,3.52.05,7.07.05,10.83h-4.9c0-2.87,0-5.7,0-8.53,0-2.57-.67-5.3-3.29-5.82s-5.51.1-8.21.59c-.54.1-1.05,1.88-1.09,2.9C485,323.77,485.08,327.32,485.08,331.2Z" transform="translate(-77.6 -162.44)"/><path class="cls-1" d="M519.34,329.07l1.75-2.93c4.32.42,8.13,1,11.95,1.05,1.06,0,2.15-1.47,3.23-2.26a12.82,12.82,0,0,0-3.48-1.3c-2.38-.16-4.8.19-7.19.09a5,5,0,0,1-5.15-4.22,5.6,5.6,0,0,1,3.32-6.52c5.12-2.56,10.22-1.28,15.73.08l-1.31,3.54a77,77,0,0,0-9.14-.7c-1.11,0-2.18,1.44-3.27,2.23a13.92,13.92,0,0,0,3.6,1.18c2,.08,4.12-.41,6.17-.38,3,.05,5.34,1.32,6.12,4.5a6.06,6.06,0,0,1-3.93,6.88C531.62,332.77,525.64,331.81,519.34,329.07Z" transform="translate(-77.6 -162.44)"/><path class="cls-1" d="M606.92,376.57h-5c0-2.92.13-5.75,0-8.56-.28-4.8-3.21-7.21-7.75-6.45-3,.49-5.12,1.64-4.7,5.38a72.22,72.22,0,0,1,0,8.58,4.75,4.75,0,0,1-.25.9h-4.48V357.24c1.57.19,3.15.43,4.73.56a7.1,7.1,0,0,0,2.44-.13c9.19-2.63,15,1.62,15,11.06Z" transform="translate(-77.6 -162.44)"/><path class="cls-1" d="M452.65,357.43h5c0,3,0,5.89,0,8.81,0,2.41.17,5.18,2.78,5.66s5.29-.24,7.86-.82c.59-.13,1.13-1.84,1.17-2.85.14-3.53.05-7.06.05-10.77h4.76v18.76c-4.41.27-8.63.79-12.84.74-5.69-.07-8.5-2.88-8.77-8.47C452.51,364.86,452.65,361.21,452.65,357.43Z" transform="translate(-77.6 -162.44)"/><path class="cls-1" d="M616.62,361.41,612,361c-.08-1.14-.15-2.21-.24-3.49l4.57-.47c.11-1.74.22-3.51.34-5.51h4.6c.11,1.79.22,3.56.35,5.54l4.32.36v3.47l-4.45.51v15.09h-4.83Z" transform="translate(-77.6 -162.44)"/><path class="cls-1" d="M416.64,311c.54,1.69.94,3,1.3,4.11-.29.37-.4.65-.57.7-7.45,2-7.54,2.13-7.54,9.76v5.52H405v-20c2,.95,3.52,1.72,5.07,2.3a2.75,2.75,0,0,0,1.76-.22C413.26,312.61,414.7,311.92,416.64,311Z" transform="translate(-77.6 -162.44)"/><path class="cls-1" d="M513.61,331.21H509.1V312.15h4.51Z" transform="translate(-77.6 -162.44)"/><path class="cls-1" d="M648.78,350.23l-11.53,4.93-1.79-3.49,11.31-5.33Z" transform="translate(-77.6 -162.44)"/><path class="cls-1" d="M511.12,303.15c1.51,1.49,3.16,2.41,3.16,3.33s-1.68,2.64-2.54,2.59c-1.2-.06-2.34-1.44-3.5-2.26Z" transform="translate(-77.6 -162.44)"/></svg>