<svg id="Calque_8" data-name="Calque 8" xmlns="http://www.w3.org/2000/svg" viewBox="0 0 671.75 111.61"><defs><style>.cls-1{fill:#ff4a01;}</style></defs><title>logo_dnamde_sans_mention</title><path class="cls-1" d="M662.29,260.39h87.06v13.34H648.73c-.08-1.13-.21-2-.21-2.91q0-52.35-.06-104.71c0-2.62.79-3.3,3.33-3.3q47.12.12,94.23.06c.89,0,1.79.13,2.92.22v13.13H662.3v29H743v13.63H662.29Z" transform="translate(-77.6 -162.44)"/><path class="cls-1" d="M527.65,273.86V163.21a7.49,7.49,0,0,1,1.43-.3c18.85.07,37.72-.38,56.55.36,26.72,1,49.2,20.62,54,46,4.28,22.64-7.6,45.94-29.18,57.28A64.31,64.31,0,0,1,580,274q-24.48,0-49-.12Zm13.51-13.71a14.44,14.44,0,0,0,1.82.26c13,0,26,.08,39-.05a50.27,50.27,0,0,0,24.91-7.1c21.44-12.39,27.33-38.32,12.85-57.29-8.51-11.15-20.07-17.87-33.93-18.92-14.52-1.09-29.17-.55-43.77-.71a3.49,3.49,0,0,0-.87.35Z" transform="translate(-77.6 -162.44)"/><path class="cls-1" d="M77.67,218.19c0-17,.06-34-.07-51,0-3,.76-4,3.86-3.94,17.36.15,34.75-.45,52.09.24,22.84.91,45,14.27,53.28,37.63,8.79,25-2.66,52.32-26.83,65a66.32,66.32,0,0,1-31.13,7.52c-15.86,0-31.72-.35-47.57-.4-2.9,0-3.7-1-3.69-3.79C77.72,252.39,77.67,235.29,77.67,218.19Zm12.64.05c0,13,.07,25.93-.06,38.89,0,3,1,4,4,4,11.61-.12,23.22.11,34.82-.09,11.86-.21,22.86-3.29,32.48-10.55,18.38-13.88,21.77-38.5,7.41-55.89-10-12.12-23.26-18.06-38.82-18.57-11.71-.39-23.44-.09-35.17-.08-4.63,0-4.64,0-4.64,4.8Q90.29,199.5,90.31,218.24Z" transform="translate(-77.6 -162.44)"/><path class="cls-1" d="M514.41,274c-4,0-7.42-.15-10.86.06-2.22.13-3.2-.74-4-2.69-5-11.8-10.3-23.51-15.28-35.34-1.06-2.51-2.32-3.37-5.07-3.34-13.68.16-27.36.14-41,0-2.38,0-3.42.8-4.31,2.87-5,11.67-10.22,23.29-15.35,34.93-.51,1.14-1.05,2.27-1.57,3.41H403.25l7.56-17.11q20.08-45.44,40.1-90.89c1.07-2.44,2.51-2.76,4.88-3.16,7.88-1.34,11.44,1.94,14.49,9.23,13.71,32.76,28.16,65.21,42.35,97.78C513.17,271,513.68,272.25,514.41,274Zm-37.71-55.1c-5.88-13.47-11.61-26.6-17.66-40.44l-17.78,40.44Z" transform="translate(-77.6 -162.44)"/><path class="cls-1" d="M375,183.29l-41.19,44.86L273.66,163.1c6.53,0,12.22-.13,17.89.12,1.07.05,2.18,1.52,3.09,2.5q18.76,20.17,37.48,40.41c.53.57,1.13,1.08,1.8,1.72,13.15-14.16,26.23-28.18,39.18-42.31a7.17,7.17,0,0,1,6.23-2.73c3.2.2,6.42.05,9.86.05V273.67H375.78V183.55Z" transform="translate(-77.6 -162.44)"/><path class="cls-1" d="M214.57,183.08v4c0,27.32-.06,54.63.07,81.95,0,3.33-1,4.33-4.28,4.26-8.43-.16-8.43,0-8.43-8.3,0-32.48,0-65-.07-97.45,0-3.3,1-4,4.22-4.34,6.6-.65,10.88,1.88,15.28,6.73,30.62,33.78,61.56,67.27,92.4,100.85.54.58,1.05,1.18,2.07,2.34-5.8,0-11,.14-16.21-.11-1.1-.06-2.27-1.42-3.17-2.4q-34.84-38-69.62-75.94c-3.69-4-7.41-8-11.12-12Z" transform="translate(-77.6 -162.44)"/></svg>