<svg id="Calque_3" data-name="Calque 3" xmlns="http://www.w3.org/2000/svg" viewBox="0 0 126.59 109.63"><defs><style>.cls-1{fill:#003ae6;}</style></defs><title>vimeo</title><path class="cls-1" d="M721.31,144.78c3.79-11.44,8.88-21.5,20.18-26.82a32.15,32.15,0,0,1,19.85-2.39c7.63,1.41,11.73,6.51,13.26,13.82a40.67,40.67,0,0,1-1.49,22.07c-3.08,8.87-7.67,16.94-12.85,24.7a228.13,228.13,0,0,1-21.79,28.05c-6,6.47-12.26,12.54-20.09,16.78a30.16,30.16,0,0,1-10,3.44c-5.49.83-9.75-1.37-13.14-5.45-4.77-5.73-7.54-12.44-9.47-19.59q-4.95-18.44-10.16-36.81A41.33,41.33,0,0,0,670,149.81a9.25,9.25,0,0,0-.82-1.05c-2.72-2.95-4.1-3.19-7.49-1.11-2.3,1.4-4.51,2.93-6.9,4.51l-5.87-7.57a4.9,4.9,0,0,1,.46-.58c7.68-6.72,15.28-13.54,23.11-20.1a44.31,44.31,0,0,1,9-5.78c7.35-3.61,14.74-1.11,18.76,6,2.35,4.15,3.27,8.73,4.13,13.33,2.08,11.2,4,22.43,6.36,33.57.76,3.65,2.52,7.09,3.83,10.63a3.51,3.51,0,0,0,.37.65c2.15,3.41,4.61,3.94,7.39,1a77,77,0,0,0,7.49-9.45,66.63,66.63,0,0,0,8.43-16.07,17.69,17.69,0,0,0,.85-9,7,7,0,0,0-6.49-6A23.09,23.09,0,0,0,721.31,144.78Z" transform="translate(-648.9 -114.97)"/></svg>