<svg id="Calque_6" data-name="Calque 6" xmlns="http://www.w3.org/2000/svg" viewBox="0 0 146.68 109.28"><defs><style>.cls-1{fill:none;stroke-miterlimit:10;stroke-width:22px;}.cls-1,.cls-2{stroke:#ff4a01;}.cls-2{fill:#ff4a01;stroke-linecap:round;stroke-linejoin:round;stroke-width:11px;}</style></defs><title>youtube</title><path class="cls-1" d="M548.88,126.58c6,.09,12.11.16,18.19.29,4.24.09,8.48.21,12.71.41,3.44.16,6.87.44,10.3.67a35.93,35.93,0,0,1,7.58,1.25,15.23,15.23,0,0,1,6.88,3.9,15.53,15.53,0,0,1,3.32,5.54,33.48,33.48,0,0,1,1.64,6.9c.67,4.77,1,9.57,1.23,14.37.14,3.22.31,6.43.37,9.65,0,2.14-.07,4.29-.15,6.43-.11,2.69-.23,5.38-.41,8.07a105.55,105.55,0,0,1-1.48,13.37,28.14,28.14,0,0,1-1.48,5.08,13.92,13.92,0,0,1-8.73,8.35,25.39,25.39,0,0,1-6.19,1.36c-4.42.36-8.85.72-13.28.92-5.53.25-11.06.36-16.6.49-4.48.11-9,.2-13.46.22-3.44,0-6.88-.06-10.32-.13-4.86-.08-9.73-.14-14.58-.31-4.59-.16-9.17-.43-13.75-.7-2.26-.14-4.52-.37-6.77-.63a23.85,23.85,0,0,1-6-1.52,13.91,13.91,0,0,1-8.1-8.42,34.18,34.18,0,0,1-1.79-7.47c-.67-4.87-1-9.76-1.23-14.67-.13-3.19-.28-6.38-.35-9.57,0-1.74.06-3.49.13-5.24.12-2.84.23-5.68.41-8.51a102.21,102.21,0,0,1,1.49-13.52,35.19,35.19,0,0,1,1.35-4.82,13.9,13.9,0,0,1,9.52-9,34.59,34.59,0,0,1,7.55-1.36c2.46-.2,4.92-.39,7.39-.54s4.88-.28,7.32-.35c5.51-.14,11-.25,16.53-.36C541.69,126.68,545.26,126.63,548.88,126.58Z" transform="translate(-475.43 -115.58)"/><path class="cls-2" d="M536.38,188.74c.09,0,.14,0,.18,0a3,3,0,0,0,.4-.2l31.63-18.31s0-.05,0-.07v-.12l-31.69-18.3a3.73,3.73,0,0,0-.4-.2.09.09,0,0,0-.07,0s-.05,0-.08,0Z" transform="translate(-475.43 -115.58)"/></svg>